<?xml version="1.0" encoding="utf-8" standalone="no"?><!--Created with Software Ideas Modeler (https://www.softwareideas.net)--><!DOCTYPE svg PUBLIC "-//W3C//DTD SVG 1.1//EN" "http://www.w3.org/Graphics/SVG/1.1/DTD/svg11.dtd"><svg width="1163px" height="1591px" version="1.1" xmlns="http://www.w3.org/2000/svg" xmlns:xlink="http://www.w3.org/1999/xlink"><desc /><defs><clipPath id="cp1"><path d="M 63.95496 37.58963 L 97.37231 37.58963  107.3723 23.63162  107.3723 9.673615  63.95496 9.673615 " /></clipPath><clipPath id="cp2" clip-rule="evenodd"><path d="M -30000 -30000 L 30000 -30000  30000 30000  -30000 30000 z M 63.95496 37.58963 L 97.37231 37.58963  107.3723 23.63162  107.3723 9.673615  63.95496 9.673615 " /></clipPath><clipPath id="cp3"><path d="M 755.9551 1261.272 L 775.9551 1290.772  755.9551 1320.272  735.9551 1290.772 z " /></clipPath><clipPath id="cp4" clip-rule="evenodd"><path d="M -30000 -30000 L 30000 -30000  30000 30000  -30000 30000 z M 755.9551 1261.272 L 775.9551 1290.772  755.9551 1320.272  735.9551 1290.772 z " /></clipPath><clipPath id="cp5"><path d="M 755.9551 1027.461 L 775.9551 1056.961  755.9551 1086.461  735.9551 1056.961 z " /></clipPath><clipPath id="cp6" clip-rule="evenodd"><path d="M -30000 -30000 L 30000 -30000  30000 30000  -30000 30000 z M 755.9551 1027.461 L 775.9551 1056.961  755.9551 1086.461  735.9551 1056.961 z " /></clipPath><clipPath id="cp7"><path d="M 697.0198 1404.351 C 697.0198 1408.493  693.6621 1411.851  689.52 1411.851 L 689.52 1411.851  574.52 1411.851  574.52 1411.851 C 570.3777 1411.851  567.02 1408.493  567.02 1404.351 L 567.02 1359.351  567.0198 1359.351 C 567.0198 1355.209  570.3777 1351.851  574.5198 1351.851 L 574.52 1351.851  689.52 1351.851  689.5198 1351.851 C 693.6621 1351.851  697.0198 1355.209  697.0198 1359.351  697.0198 1359.351  697.0198 1359.351  697.0198 1359.351 L 697.02 1359.351  697.02 1404.351 z " /></clipPath><clipPath id="cp8" clip-rule="evenodd"><path d="M -30000 -30000 L 30000 -30000  30000 30000  -30000 30000 z M 697.0198 1404.351 C 697.0198 1408.493  693.6621 1411.851  689.52 1411.851 L 689.52 1411.851  574.52 1411.851  574.52 1411.851 C 570.3777 1411.851  567.02 1408.493  567.02 1404.351 L 567.02 1359.351  567.0198 1359.351 C 567.0198 1355.209  570.3777 1351.851  574.5198 1351.851 L 574.52 1351.851  689.52 1351.851  689.5198 1351.851 C 693.6621 1351.851  697.0198 1355.209  697.0198 1359.351  697.0198 1359.351  697.0198 1359.351  697.0198 1359.351 L 697.02 1359.351  697.02 1404.351 z " /></clipPath><clipPath id="cp9"><path d="M 564 1349 L 696 1349  696 1411  564 1411 z " /></clipPath><clipPath id="cp10"><path d="M 725.0198 876.7014 C 725.0198 880.8435  721.6621 884.2014  717.52 884.2014 L 717.52 884.2014  574.52 884.2014  574.52 884.2014 C 570.3777 884.2014  567.02 880.8435  567.02 876.7014 L 567.02 826.4009  567.0198 826.4009 C 567.0198 822.2587  570.3777 818.9009  574.5198 818.9009 L 574.52 818.9009  717.52 818.9009  717.5198 818.9009 C 721.6621 818.9009  725.0198 822.2587  725.0198 826.4009  725.0198 826.4009  725.0198 826.4009  725.0198 826.4009 L 725.02 826.4009  725.02 876.7014 z " /></clipPath><clipPath id="cp11" clip-rule="evenodd"><path d="M -30000 -30000 L 30000 -30000  30000 30000  -30000 30000 z M 725.0198 876.7014 C 725.0198 880.8435  721.6621 884.2014  717.52 884.2014 L 717.52 884.2014  574.52 884.2014  574.52 884.2014 C 570.3777 884.2014  567.02 880.8435  567.02 876.7014 L 567.02 826.4009  567.0198 826.4009 C 567.0198 822.2587  570.3777 818.9009  574.5198 818.9009 L 574.52 818.9009  717.52 818.9009  717.5198 818.9009 C 721.6621 818.9009  725.0198 822.2587  725.0198 826.4009  725.0198 826.4009  725.0198 826.4009  725.0198 826.4009 L 725.02 826.4009  725.02 876.7014 z " /></clipPath><clipPath id="cp12"><path d="M 564 816 L 724 816  724 883  564 883 z " /></clipPath><clipPath id="cp13"><path d="M 855.9551 604.9294 C 855.9551 613.2136  849.2393 619.9294  840.9551 619.9294  832.6707 619.9294  825.9551 613.2136  825.9551 604.9294  825.9551 596.6451  832.6707 589.9294  840.9551 589.9294  849.2393 589.9294  855.9551 596.6451  855.9551 604.9294 z " /></clipPath><clipPath id="cp14" clip-rule="evenodd"><path d="M -30000 -30000 L 30000 -30000  30000 30000  -30000 30000 z M 855.9551 604.9294 C 855.9551 613.2136  849.2393 619.9294  840.9551 619.9294  832.6707 619.9294  825.9551 613.2136  825.9551 604.9294  825.9551 596.6451  832.6707 589.9294  840.9551 589.9294  849.2393 589.9294  855.9551 596.6451  855.9551 604.9294 z " /></clipPath><clipPath id="cp15"><path d="M 724.9639 640.4246 C 724.9639 644.5667  721.6062 647.9246  717.4641 647.9246 L 717.4641 647.9246  582.4641 647.9246  582.4641 647.9246 C 578.3218 647.9246  574.9641 644.5667  574.9641 640.4246 L 574.9641 575.4294  574.9639 575.4294 C 574.9639 571.2872  578.3218 567.9294  582.4639 567.9294 L 582.4641 567.9294  717.4641 567.9294  717.4639 567.9294 C 721.6062 567.9294  724.9639 571.2872  724.9639 575.4294  724.9639 575.4294  724.9639 575.4294  724.9639 575.4294 L 724.9641 575.4294  724.9641 640.4246 z " /></clipPath><clipPath id="cp16" clip-rule="evenodd"><path d="M -30000 -30000 L 30000 -30000  30000 30000  -30000 30000 z M 724.9639 640.4246 C 724.9639 644.5667  721.6062 647.9246  717.4641 647.9246 L 717.4641 647.9246  582.4641 647.9246  582.4641 647.9246 C 578.3218 647.9246  574.9641 644.5667  574.9641 640.4246 L 574.9641 575.4294  574.9639 575.4294 C 574.9639 571.2872  578.3218 567.9294  582.4639 567.9294 L 582.4641 567.9294  717.4641 567.9294  717.4639 567.9294 C 721.6062 567.9294  724.9639 571.2872  724.9639 575.4294  724.9639 575.4294  724.9639 575.4294  724.9639 575.4294 L 724.9641 575.4294  724.9641 640.4246 z " /></clipPath><clipPath id="cp17"><path d="M 572 565 L 724 565  724 647  572 647 z " /></clipPath><clipPath id="cp18"><path d="M 508.9268 640.4236 C 508.9268 644.5657  505.5691 647.9236  501.427 647.9236 L 501.427 647.9236  366.427 647.9236  366.427 647.9236 C 362.2847 647.9236  358.927 644.5657  358.927 640.4236 L 358.927 575.4236  358.9268 575.4236 C 358.9268 571.2814  362.2847 567.9236  366.4268 567.9236 L 366.427 567.9236  501.427 567.9236  501.4268 567.9236 C 505.5691 567.9236  508.9268 571.2814  508.9268 575.4236  508.9268 575.4236  508.9268 575.4236  508.9268 575.4236 L 508.927 575.4236  508.927 640.4236 z " /></clipPath><clipPath id="cp19" clip-rule="evenodd"><path d="M -30000 -30000 L 30000 -30000  30000 30000  -30000 30000 z M 508.9268 640.4236 C 508.9268 644.5657  505.5691 647.9236  501.427 647.9236 L 501.427 647.9236  366.427 647.9236  366.427 647.9236 C 362.2847 647.9236  358.927 644.5657  358.927 640.4236 L 358.927 575.4236  358.9268 575.4236 C 358.9268 571.2814  362.2847 567.9236  366.4268 567.9236 L 366.427 567.9236  501.427 567.9236  501.4268 567.9236 C 505.5691 567.9236  508.9268 571.2814  508.9268 575.4236  508.9268 575.4236  508.9268 575.4236  508.9268 575.4236 L 508.927 575.4236  508.927 640.4236 z " /></clipPath><clipPath id="cp20"><path d="M 356 565 L 508 565  508 647  356 647 z " /></clipPath><clipPath id="cp21"><path d="M 292.8896 640.4246 C 292.8896 644.5667  289.532 647.9246  285.3899 647.9246 L 285.3899 647.9246  150.3899 647.9246  150.3899 647.9246 C 146.2476 647.9246  142.8899 644.5667  142.8899 640.4246 L 142.8899 575.4246  142.8896 575.4246 C 142.8896 571.2824  146.2476 567.9246  150.3896 567.9246 L 150.3899 567.9246  285.3899 567.9246  285.3896 567.9246 C 289.532 567.9246  292.8896 571.2824  292.8896 575.4246  292.8896 575.4246  292.8896 575.4246  292.8896 575.4246 L 292.8899 575.4246  292.8899 640.4246 z " /></clipPath><clipPath id="cp22" clip-rule="evenodd"><path d="M -30000 -30000 L 30000 -30000  30000 30000  -30000 30000 z M 292.8896 640.4246 C 292.8896 644.5667  289.532 647.9246  285.3899 647.9246 L 285.3899 647.9246  150.3899 647.9246  150.3899 647.9246 C 146.2476 647.9246  142.8899 644.5667  142.8899 640.4246 L 142.8899 575.4246  142.8896 575.4246 C 142.8896 571.2824  146.2476 567.9246  150.3896 567.9246 L 150.3899 567.9246  285.3899 567.9246  285.3896 567.9246 C 289.532 567.9246  292.8896 571.2824  292.8896 575.4246  292.8896 575.4246  292.8896 575.4246  292.8896 575.4246 L 292.8899 575.4246  292.8899 640.4246 z " /></clipPath><clipPath id="cp23"><path d="M 140 565 L 292 565  292 647  140 647 z " /></clipPath><clipPath id="cp24"><path d="M 617.9607 231.4875 C 617.9607 235.6296  614.603 238.9875  610.4609 238.9875 L 610.4609 238.9875  434.4609 238.9875  434.4609 238.9875 C 430.3186 238.9875  426.9609 235.6296  426.9609 231.4875 L 426.9609 186.4875  426.9607 186.4875 C 426.9607 182.3454  430.3186 178.9875  434.4607 178.9875 L 434.4609 178.9875  610.4609 178.9875  610.4607 178.9875 C 614.603 178.9875  617.9607 182.3454  617.9607 186.4875  617.9607 186.4875  617.9607 186.4875  617.9607 186.4875 L 617.9609 186.4875  617.9609 231.4875 z " /></clipPath><clipPath id="cp25" clip-rule="evenodd"><path d="M -30000 -30000 L 30000 -30000  30000 30000  -30000 30000 z M 617.9607 231.4875 C 617.9607 235.6296  614.603 238.9875  610.4609 238.9875 L 610.4609 238.9875  434.4609 238.9875  434.4609 238.9875 C 430.3186 238.9875  426.9609 235.6296  426.9609 231.4875 L 426.9609 186.4875  426.9607 186.4875 C 426.9607 182.3454  430.3186 178.9875  434.4607 178.9875 L 434.4609 178.9875  610.4609 178.9875  610.4607 178.9875 C 614.603 178.9875  617.9607 182.3454  617.9607 186.4875  617.9607 186.4875  617.9607 186.4875  617.9607 186.4875 L 617.9609 186.4875  617.9609 231.4875 z " /></clipPath><clipPath id="cp26"><path d="M 424 176 L 617 176  617 238  424 238 z " /></clipPath><clipPath id="cp27"><path d="M 537.4609 93.30151 C 537.4609 101.5858  530.7451 108.3015  522.4609 108.3015  514.1765 108.3015  507.4609 101.5858  507.4609 93.30151  507.4609 85.01724  514.1765 78.30151  522.4609 78.30151  530.7451 78.30151  537.4609 85.01724  537.4609 93.30151 z " /></clipPath><clipPath id="cp28" clip-rule="evenodd"><path d="M -30000 -30000 L 30000 -30000  30000 30000  -30000 30000 z M 537.4609 93.30151 C 537.4609 101.5858  530.7451 108.3015  522.4609 108.3015  514.1765 108.3015  507.4609 101.5858  507.4609 93.30151  507.4609 85.01724  514.1765 78.30151  522.4609 78.30151  530.7451 78.30151  537.4609 85.01724  537.4609 93.30151 z " /></clipPath><clipPath id="cp29"><path d="M 522.4609 309.6736 L 549.4609 339.1736  522.4609 368.6736  495.4609 339.1736 z " /></clipPath><clipPath id="cp30" clip-rule="evenodd"><path d="M -30000 -30000 L 30000 -30000  30000 30000  -30000 30000 z M 522.4609 309.6736 L 549.4609 339.1736  522.4609 368.6736  495.4609 339.1736 z " /></clipPath></defs><g clip-path="url(#)" transform="matrix(1 0 0 1 0 0)" /><g clip-path="url(#cp1)" transform="matrix(1 0 0 1 0 0)"><rect x="63px" y="9px" width="45px" height="30px" fill="rgba(85,85,85,0.227)" /></g><g clip-path="url(#)" transform="matrix(1 0 0 1 0 0)" /><g clip-path="url(#cp2)" transform="matrix(1 0 0 1 0 0)"><path fill="none" d="M 63.95496 37.58963 L 97.37231 37.58963  107.3723 23.63162  107.3723 9.673615  63.95496 9.673615 " stroke="rgba(85,85,85,0.031)" stroke-width="16px" stroke-dashoffset="0" stroke-linejoin="round" stroke-miterlimit="10" /><path fill="none" d="M 63.95496 37.58963 L 97.37231 37.58963  107.3723 23.63162  107.3723 9.673615  63.95496 9.673615 " stroke="rgba(85,85,85,0.031)" stroke-width="14px" stroke-dashoffset="0" stroke-linejoin="round" stroke-miterlimit="10" /><path fill="none" d="M 63.95496 37.58963 L 97.37231 37.58963  107.3723 23.63162  107.3723 9.673615  63.95496 9.673615 " stroke="rgba(85,85,85,0.031)" stroke-width="12px" stroke-dashoffset="0" stroke-linejoin="round" stroke-miterlimit="10" /><path fill="none" d="M 63.95496 37.58963 L 97.37231 37.58963  107.3723 23.63162  107.3723 9.673615  63.95496 9.673615 " stroke="rgba(85,85,85,0.031)" stroke-width="10px" stroke-dashoffset="0" stroke-linejoin="round" stroke-miterlimit="10" /><path fill="none" d="M 63.95496 37.58963 L 97.37231 37.58963  107.3723 23.63162  107.3723 9.673615  63.95496 9.673615 " stroke="rgba(85,85,85,0.031)" stroke-width="8px" stroke-dashoffset="0" stroke-linejoin="round" stroke-miterlimit="10" /><path fill="none" d="M 63.95496 37.58963 L 97.37231 37.58963  107.3723 23.63162  107.3723 9.673615  63.95496 9.673615 " stroke="rgba(85,85,85,0.031)" stroke-width="6px" stroke-dashoffset="0" stroke-linejoin="round" stroke-miterlimit="10" /><path fill="none" d="M 63.95496 37.58963 L 97.37231 37.58963  107.3723 23.63162  107.3723 9.673615  63.95496 9.673615 " stroke="rgba(85,85,85,0.031)" stroke-width="4px" stroke-dashoffset="0" stroke-linejoin="round" stroke-miterlimit="10" /><path fill="none" d="M 63.95496 37.58963 L 97.37231 37.58963  107.3723 23.63162  107.3723 9.673615  63.95496 9.673615 " stroke="rgba(85,85,85,0.031)" stroke-width="2px" stroke-dashoffset="0" stroke-linejoin="round" stroke-miterlimit="10" /></g><g clip-path="url(#)" transform="matrix(1 0 0 1 0 0)"><path d="M 61.95496 35.58963 L 95.37231 35.58963  105.3723 21.63162  105.3723 7.673615  61.95496 7.673615 " fill="#F2F2F2" /><path fill="none" d="M 61.95496 35.58963 L 95.37231 35.58963  105.3723 21.63162  105.3723 7.673615  61.95496 7.673615 " stroke="#555555" stroke-width="2px" stroke-dashoffset="0" stroke-linejoin="round" stroke-miterlimit="10" /><text x="66px" y="29.9609355926514px" font-family="Segoe UI" font-size="9pt" fill="#555555">Yes</text><path fill="none" d="M 61.95496 7.673615 L 1142.955 7.673615  1142.955 1570.674  61.95496 1570.674 z " stroke="#555555" stroke-width="2px" stroke-dashoffset="0" stroke-linejoin="round" stroke-miterlimit="10" /></g><g clip-path="url(#)" transform="matrix(1 0 0 1 0 0)" /><g clip-path="url(#)" transform="matrix(1 0 0 1 0 0)"><path fill="none" d="M 773 1288 L 975 1288  975 1288 C 980.5228 1288  984.9999 1283.523  984.9999 1278 L 985 1278  985 217  984.9999 217 C 984.9999 211.4771  980.5228 207  974.9999 207  974.9999 207  974.9999 207  974.9999 207 L 975 207  616 207 " stroke="#555555" stroke-width="2px" stroke-dashoffset="0" stroke-linejoin="round" stroke-miterlimit="10" /><polyline points="634,215 616,207 634,199 " fill="none" stroke="#555555" stroke-width="2px" stroke-dashoffset="0" stroke-linejoin="round" stroke-miterlimit="10" /><text x="791px" y="1319.62109375px" font-family="Segoe UI" font-size="10.5pt" font-weight="bold" fill="#555555">No</text></g><g clip-path="url(#)" transform="matrix(1 0 0 1 0 0)" /><g clip-path="url(#)" transform="matrix(1 0 0 1 0 0)"><path fill="none" d="M 756 1081 L 756 1169  755.9999 1169 C 755.9999 1169.552  755.5522 1170  755 1170 L 755 1170  755 1170  754.9999 1170 C 754.4477 1170  753.9999 1170.448  753.9999 1171 L 754 1171  754 1259 " stroke="#555555" stroke-width="2px" stroke-dashoffset="0" stroke-linejoin="round" stroke-miterlimit="10" /><polyline points="762,1236 754,1259 746,1236 " fill="none" stroke="#555555" stroke-width="2px" stroke-dashoffset="0" stroke-linejoin="round" stroke-miterlimit="10" /><text x="758px" y="1102.62109375px" font-family="Segoe UI" font-size="10.5pt" font-weight="bold" fill="#555555">Yes</text></g><g clip-path="url(#)" transform="matrix(1 0 0 1 0 0)" /><g clip-path="url(#)" transform="matrix(1 0 0 1 0 0)"><path fill="none" d="M 644 871 L 644 939 C 644 944.5228  648.4771 949  654 948.9999 L 654 949  746 949  745.9999 949 C 751.5228 948.9999  755.9999 953.4771  755.9999 958.9999  755.9999 958.9999  755.9999 959  755.9999 959 L 756 959  756 1028 " stroke="#555555" stroke-width="2px" stroke-dashoffset="0" stroke-linejoin="round" stroke-miterlimit="10" /><polyline points="764,1010 756,1028 748,1010 " fill="none" stroke="#555555" stroke-width="2px" stroke-dashoffset="0" stroke-linejoin="round" stroke-miterlimit="10" /></g><g clip-path="url(#)" transform="matrix(1 0 0 1 0 0)" /><g clip-path="url(#)" transform="matrix(1 0 0 1 0 0)"><path fill="none" d="M 736 1059 L 640 1059  639.9999 1059 C 634.4771 1059  629.9999 1063.477  629.9999 1069 L 630 1069  630 1350 " stroke="#555555" stroke-width="2px" stroke-dashoffset="0" stroke-linejoin="round" stroke-miterlimit="10" /><polyline points="638,1332 630,1350 622,1332 " fill="none" stroke="#555555" stroke-width="2px" stroke-dashoffset="0" stroke-linejoin="round" stroke-miterlimit="10" /><text x="691px" y="1044.62109375px" font-family="Segoe UI" font-size="10.5pt" font-weight="bold" fill="#555555">No</text></g><g clip-path="url(#)" transform="matrix(1 0 0 1 0 0)" /><g clip-path="url(#)" transform="matrix(1 0 0 1 0 0)"><path fill="none" d="M 754 1318 L 754 1324  753.9999 1324 C 753.9999 1329.523  749.5228 1334  744 1334 L 744 1334  638 1334  637.9999 1334 C 633.5817 1334  629.9999 1337.582  629.9999 1342 L 630 1342  630 1350 " stroke="#555555" stroke-width="2px" stroke-dashoffset="0" stroke-linejoin="round" stroke-miterlimit="10" /><polyline points="638,1332 630,1350 622,1332 " fill="none" stroke="#555555" stroke-width="2px" stroke-dashoffset="0" stroke-linejoin="round" stroke-miterlimit="10" /><text x="694px" y="1317.62109375px" font-family="Segoe UI" font-size="10.5pt" font-weight="bold" fill="#555555">Yes</text></g><g clip-path="url(#)" transform="matrix(1 0 0 1 0 0)" /><g clip-path="url(#)" transform="matrix(1 0 0 1 0 0)" /><g clip-path="url(#cp3)" transform="matrix(1 0 0 1 0 0)"><rect x="735px" y="1260px" width="42px" height="61px" fill="rgba(85,85,85,0.227)" /></g><g clip-path="url(#)" transform="matrix(1 0 0 1 0 0)" /><g clip-path="url(#cp4)" transform="matrix(1 0 0 1 0 0)"><path fill="none" d="M 755.9551 1261.272 L 775.9551 1290.772  755.9551 1320.272  735.9551 1290.772 z " stroke="rgba(85,85,85,0.031)" stroke-width="16px" stroke-dashoffset="0" stroke-linejoin="round" stroke-miterlimit="10" /><path fill="none" d="M 755.9551 1261.272 L 775.9551 1290.772  755.9551 1320.272  735.9551 1290.772 z " stroke="rgba(85,85,85,0.031)" stroke-width="14px" stroke-dashoffset="0" stroke-linejoin="round" stroke-miterlimit="10" /><path fill="none" d="M 755.9551 1261.272 L 775.9551 1290.772  755.9551 1320.272  735.9551 1290.772 z " stroke="rgba(85,85,85,0.031)" stroke-width="12px" stroke-dashoffset="0" stroke-linejoin="round" stroke-miterlimit="10" /><path fill="none" d="M 755.9551 1261.272 L 775.9551 1290.772  755.9551 1320.272  735.9551 1290.772 z " stroke="rgba(85,85,85,0.031)" stroke-width="10px" stroke-dashoffset="0" stroke-linejoin="round" stroke-miterlimit="10" /><path fill="none" d="M 755.9551 1261.272 L 775.9551 1290.772  755.9551 1320.272  735.9551 1290.772 z " stroke="rgba(85,85,85,0.031)" stroke-width="8px" stroke-dashoffset="0" stroke-linejoin="round" stroke-miterlimit="10" /><path fill="none" d="M 755.9551 1261.272 L 775.9551 1290.772  755.9551 1320.272  735.9551 1290.772 z " stroke="rgba(85,85,85,0.031)" stroke-width="6px" stroke-dashoffset="0" stroke-linejoin="round" stroke-miterlimit="10" /><path fill="none" d="M 755.9551 1261.272 L 775.9551 1290.772  755.9551 1320.272  735.9551 1290.772 z " stroke="rgba(85,85,85,0.031)" stroke-width="4px" stroke-dashoffset="0" stroke-linejoin="round" stroke-miterlimit="10" /><path fill="none" d="M 755.9551 1261.272 L 775.9551 1290.772  755.9551 1320.272  735.9551 1290.772 z " stroke="rgba(85,85,85,0.031)" stroke-width="2px" stroke-dashoffset="0" stroke-linejoin="round" stroke-miterlimit="10" /></g><g clip-path="url(#)" transform="matrix(1 0 0 1 0 0)"><path d="M 753.9551 1259.272 L 773.9551 1288.772  753.9551 1318.272  733.9551 1288.772 z " fill="#F2F2F2" /><path fill="none" d="M 753.9551 1259.272 L 773.9551 1288.772  753.9551 1318.272  733.9551 1288.772 z " stroke="#555555" stroke-width="2px" stroke-dashoffset="0" stroke-linejoin="round" stroke-miterlimit="10" /><text x="773px" y="1247.62109375px" font-family="Segoe UI" font-size="10.5pt" font-weight="bold" fill="#555555">Rewrite calib</text></g><g clip-path="url(#)" transform="matrix(1 0 0 1 0 0)" /><g clip-path="url(#)" transform="matrix(1 0 0 1 0 0)" /><g clip-path="url(#cp5)" transform="matrix(1 0 0 1 0 0)"><rect x="735px" y="1026px" width="42px" height="61px" fill="rgba(85,85,85,0.227)" /></g><g clip-path="url(#)" transform="matrix(1 0 0 1 0 0)" /><g clip-path="url(#cp6)" transform="matrix(1 0 0 1 0 0)"><path fill="none" d="M 755.9551 1027.461 L 775.9551 1056.961  755.9551 1086.461  735.9551 1056.961 z " stroke="rgba(85,85,85,0.031)" stroke-width="16px" stroke-dashoffset="0" stroke-linejoin="round" stroke-miterlimit="10" /><path fill="none" d="M 755.9551 1027.461 L 775.9551 1056.961  755.9551 1086.461  735.9551 1056.961 z " stroke="rgba(85,85,85,0.031)" stroke-width="14px" stroke-dashoffset="0" stroke-linejoin="round" stroke-miterlimit="10" /><path fill="none" d="M 755.9551 1027.461 L 775.9551 1056.961  755.9551 1086.461  735.9551 1056.961 z " stroke="rgba(85,85,85,0.031)" stroke-width="12px" stroke-dashoffset="0" stroke-linejoin="round" stroke-miterlimit="10" /><path fill="none" d="M 755.9551 1027.461 L 775.9551 1056.961  755.9551 1086.461  735.9551 1056.961 z " stroke="rgba(85,85,85,0.031)" stroke-width="10px" stroke-dashoffset="0" stroke-linejoin="round" stroke-miterlimit="10" /><path fill="none" d="M 755.9551 1027.461 L 775.9551 1056.961  755.9551 1086.461  735.9551 1056.961 z " stroke="rgba(85,85,85,0.031)" stroke-width="8px" stroke-dashoffset="0" stroke-linejoin="round" stroke-miterlimit="10" /><path fill="none" d="M 755.9551 1027.461 L 775.9551 1056.961  755.9551 1086.461  735.9551 1056.961 z " stroke="rgba(85,85,85,0.031)" stroke-width="6px" stroke-dashoffset="0" stroke-linejoin="round" stroke-miterlimit="10" /><path fill="none" d="M 755.9551 1027.461 L 775.9551 1056.961  755.9551 1086.461  735.9551 1056.961 z " stroke="rgba(85,85,85,0.031)" stroke-width="4px" stroke-dashoffset="0" stroke-linejoin="round" stroke-miterlimit="10" /><path fill="none" d="M 755.9551 1027.461 L 775.9551 1056.961  755.9551 1086.461  735.9551 1056.961 z " stroke="rgba(85,85,85,0.031)" stroke-width="2px" stroke-dashoffset="0" stroke-linejoin="round" stroke-miterlimit="10" /></g><g clip-path="url(#)" transform="matrix(1 0 0 1 0 0)"><path d="M 753.9551 1025.461 L 773.9551 1054.961  753.9551 1084.461  733.9551 1054.961 z " fill="#F2F2F2" /><path fill="none" d="M 753.9551 1025.461 L 773.9551 1054.961  753.9551 1084.461  733.9551 1054.961 z " stroke="#555555" stroke-width="2px" stroke-dashoffset="0" stroke-linejoin="round" stroke-miterlimit="10" /><text x="773px" y="1013.62109375px" font-family="Segoe UI" font-size="10.5pt" font-weight="bold" fill="#555555">Calib Exists</text></g><g clip-path="url(#)" transform="matrix(1 0 0 1 0 0)" /><g clip-path="url(#)" transform="matrix(1 0 0 1 0 0)"><path fill="none" d="M 630 1410 L 630 1431 C 630 1436.523  634.4771 1441  640 1441 L 640 1441  975 1441  975 1441 C 980.5228 1441  984.9999 1436.523  984.9999 1431 L 985 1431  985 217  984.9999 217 C 984.9999 211.4771  980.5228 207  974.9999 207  974.9999 207  974.9999 207  974.9999 207 L 975 207  616 207 " stroke="#555555" stroke-width="2px" stroke-dashoffset="0" stroke-linejoin="round" stroke-miterlimit="10" /><polyline points="639,215 616,207 639,199 " fill="none" stroke="#555555" stroke-width="2px" stroke-dashoffset="0" stroke-linejoin="round" stroke-miterlimit="10" /></g><g clip-path="url(#)" transform="matrix(1 0 0 1 0 0)" /><g clip-path="url(#)" transform="matrix(1 0 0 1 0 0)" /><g clip-path="url(#cp7)" transform="matrix(1 0 0 1 0 0)"><rect x="566px" y="1351px" width="132px" height="62px" fill="rgba(85,85,85,0.227)" /></g><g clip-path="url(#)" transform="matrix(1 0 0 1 0 0)" /><g clip-path="url(#cp8)" transform="matrix(1 0 0 1 0 0)"><path fill="none" d="M 697.0198 1404.351 C 697.0198 1408.493  693.6621 1411.851  689.52 1411.851 L 689.52 1411.851  574.52 1411.851  574.52 1411.851 C 570.3777 1411.851  567.02 1408.493  567.02 1404.351 L 567.02 1359.351  567.0198 1359.351 C 567.0198 1355.209  570.3777 1351.851  574.5198 1351.851 L 574.52 1351.851  689.52 1351.851  689.5198 1351.851 C 693.6621 1351.851  697.0198 1355.209  697.0198 1359.351  697.0198 1359.351  697.0198 1359.351  697.0198 1359.351 L 697.02 1359.351  697.02 1404.351 z " stroke="rgba(85,85,85,0.031)" stroke-width="16px" stroke-dashoffset="0" stroke-linejoin="round" stroke-miterlimit="10" /><path fill="none" d="M 697.0198 1404.351 C 697.0198 1408.493  693.6621 1411.851  689.52 1411.851 L 689.52 1411.851  574.52 1411.851  574.52 1411.851 C 570.3777 1411.851  567.02 1408.493  567.02 1404.351 L 567.02 1359.351  567.0198 1359.351 C 567.0198 1355.209  570.3777 1351.851  574.5198 1351.851 L 574.52 1351.851  689.52 1351.851  689.5198 1351.851 C 693.6621 1351.851  697.0198 1355.209  697.0198 1359.351  697.0198 1359.351  697.0198 1359.351  697.0198 1359.351 L 697.02 1359.351  697.02 1404.351 z " stroke="rgba(85,85,85,0.031)" stroke-width="14px" stroke-dashoffset="0" stroke-linejoin="round" stroke-miterlimit="10" /><path fill="none" d="M 697.0198 1404.351 C 697.0198 1408.493  693.6621 1411.851  689.52 1411.851 L 689.52 1411.851  574.52 1411.851  574.52 1411.851 C 570.3777 1411.851  567.02 1408.493  567.02 1404.351 L 567.02 1359.351  567.0198 1359.351 C 567.0198 1355.209  570.3777 1351.851  574.5198 1351.851 L 574.52 1351.851  689.52 1351.851  689.5198 1351.851 C 693.6621 1351.851  697.0198 1355.209  697.0198 1359.351  697.0198 1359.351  697.0198 1359.351  697.0198 1359.351 L 697.02 1359.351  697.02 1404.351 z " stroke="rgba(85,85,85,0.031)" stroke-width="12px" stroke-dashoffset="0" stroke-linejoin="round" stroke-miterlimit="10" /><path fill="none" d="M 697.0198 1404.351 C 697.0198 1408.493  693.6621 1411.851  689.52 1411.851 L 689.52 1411.851  574.52 1411.851  574.52 1411.851 C 570.3777 1411.851  567.02 1408.493  567.02 1404.351 L 567.02 1359.351  567.0198 1359.351 C 567.0198 1355.209  570.3777 1351.851  574.5198 1351.851 L 574.52 1351.851  689.52 1351.851  689.5198 1351.851 C 693.6621 1351.851  697.0198 1355.209  697.0198 1359.351  697.0198 1359.351  697.0198 1359.351  697.0198 1359.351 L 697.02 1359.351  697.02 1404.351 z " stroke="rgba(85,85,85,0.031)" stroke-width="10px" stroke-dashoffset="0" stroke-linejoin="round" stroke-miterlimit="10" /><path fill="none" d="M 697.0198 1404.351 C 697.0198 1408.493  693.6621 1411.851  689.52 1411.851 L 689.52 1411.851  574.52 1411.851  574.52 1411.851 C 570.3777 1411.851  567.02 1408.493  567.02 1404.351 L 567.02 1359.351  567.0198 1359.351 C 567.0198 1355.209  570.3777 1351.851  574.5198 1351.851 L 574.52 1351.851  689.52 1351.851  689.5198 1351.851 C 693.6621 1351.851  697.0198 1355.209  697.0198 1359.351  697.0198 1359.351  697.0198 1359.351  697.0198 1359.351 L 697.02 1359.351  697.02 1404.351 z " stroke="rgba(85,85,85,0.031)" stroke-width="8px" stroke-dashoffset="0" stroke-linejoin="round" stroke-miterlimit="10" /><path fill="none" d="M 697.0198 1404.351 C 697.0198 1408.493  693.6621 1411.851  689.52 1411.851 L 689.52 1411.851  574.52 1411.851  574.52 1411.851 C 570.3777 1411.851  567.02 1408.493  567.02 1404.351 L 567.02 1359.351  567.0198 1359.351 C 567.0198 1355.209  570.3777 1351.851  574.5198 1351.851 L 574.52 1351.851  689.52 1351.851  689.5198 1351.851 C 693.6621 1351.851  697.0198 1355.209  697.0198 1359.351  697.0198 1359.351  697.0198 1359.351  697.0198 1359.351 L 697.02 1359.351  697.02 1404.351 z " stroke="rgba(85,85,85,0.031)" stroke-width="6px" stroke-dashoffset="0" stroke-linejoin="round" stroke-miterlimit="10" /><path fill="none" d="M 697.0198 1404.351 C 697.0198 1408.493  693.6621 1411.851  689.52 1411.851 L 689.52 1411.851  574.52 1411.851  574.52 1411.851 C 570.3777 1411.851  567.02 1408.493  567.02 1404.351 L 567.02 1359.351  567.0198 1359.351 C 567.0198 1355.209  570.3777 1351.851  574.5198 1351.851 L 574.52 1351.851  689.52 1351.851  689.5198 1351.851 C 693.6621 1351.851  697.0198 1355.209  697.0198 1359.351  697.0198 1359.351  697.0198 1359.351  697.0198 1359.351 L 697.02 1359.351  697.02 1404.351 z " stroke="rgba(85,85,85,0.031)" stroke-width="4px" stroke-dashoffset="0" stroke-linejoin="round" stroke-miterlimit="10" /><path fill="none" d="M 697.0198 1404.351 C 697.0198 1408.493  693.6621 1411.851  689.52 1411.851 L 689.52 1411.851  574.52 1411.851  574.52 1411.851 C 570.3777 1411.851  567.02 1408.493  567.02 1404.351 L 567.02 1359.351  567.0198 1359.351 C 567.0198 1355.209  570.3777 1351.851  574.5198 1351.851 L 574.52 1351.851  689.52 1351.851  689.5198 1351.851 C 693.6621 1351.851  697.0198 1355.209  697.0198 1359.351  697.0198 1359.351  697.0198 1359.351  697.0198 1359.351 L 697.02 1359.351  697.02 1404.351 z " stroke="rgba(85,85,85,0.031)" stroke-width="2px" stroke-dashoffset="0" stroke-linejoin="round" stroke-miterlimit="10" /></g><g clip-path="url(#)" transform="matrix(1 0 0 1 0 0)"><path d="M 695.0198 1402.351 C 695.0198 1406.493  691.6621 1409.851  687.52 1409.851 L 687.52 1409.851  572.52 1409.851  572.52 1409.851 C 568.3777 1409.851  565.02 1406.493  565.02 1402.351 L 565.02 1357.351  565.0198 1357.351 C 565.0198 1353.209  568.3777 1349.851  572.5198 1349.851 L 572.52 1349.851  687.52 1349.851  687.5198 1349.851 C 691.6621 1349.851  695.0198 1353.209  695.0198 1357.351  695.0198 1357.351  695.0198 1357.351  695.0198 1357.351 L 695.02 1357.351  695.02 1402.351 z " fill="#F2F2F2" /><path fill="none" d="M 695.0198 1402.351 C 695.0198 1406.493  691.6621 1409.851  687.52 1409.851 L 687.52 1409.851  572.52 1409.851  572.52 1409.851 C 568.3777 1409.851  565.02 1406.493  565.02 1402.351 L 565.02 1357.351  565.0198 1357.351 C 565.0198 1353.209  568.3777 1349.851  572.5198 1349.851 L 572.52 1349.851  687.52 1349.851  687.5198 1349.851 C 691.6621 1349.851  695.0198 1353.209  695.0198 1357.351  695.0198 1357.351  695.0198 1357.351  695.0198 1357.351 L 695.02 1357.351  695.02 1402.351 z " stroke="#555555" stroke-width="2px" stroke-dashoffset="0" stroke-linejoin="round" stroke-miterlimit="10" /></g><g clip-path="url(#cp9)" transform="matrix(1 0 0 1 0 0)"><text x="577px" y="1372.62109375px" font-family="Segoe UI" font-size="10.5pt" font-weight="bold" fill="#555555">Write Calib</text><text x="652px" y="1372.62109375px" font-family="Segoe UI" font-size="10.5pt" font-weight="bold" fill="#555555">Data</text><line x1="565px" y1="1381px" x2="695px" y2="1381px" stroke="#555555" stroke-width="2px" stroke-dashoffset="0" stroke-linejoin="round" stroke-miterlimit="10" /><text x="570px" y="1403.9609375px" font-family="Segoe UI" font-size="9pt" fill="#555555">write</text><text x="596px" y="1403.9609375px" font-family="Segoe UI" font-size="9pt" fill="#555555">Data </text><text x="623px" y="1403.9609375px" font-family="Segoe UI" font-size="9pt" fill="#555555">/</text><text x="568px" y="1402.9609375px" font-family="Segoe UI" font-size="9pt" fill="#555555"> </text></g><g clip-path="url(#)" transform="matrix(1 0 0 1 0 0)" /><g clip-path="url(#)" transform="matrix(1 0 0 1 0 0)" /><g clip-path="url(#)" transform="matrix(1 0 0 1 0 0)"><path fill="none" d="M 216 646 L 216 721 C 216 726.5228  220.4772 731  226 730.9999 L 226 731  634 731  633.9999 731 C 639.5228 730.9999  643.9999 735.4771  643.9999 740.9999  643.9999 740.9999  643.9999 741  643.9999 741 L 644 741  644 817 " stroke="#555555" stroke-width="2px" stroke-dashoffset="0" stroke-linejoin="round" stroke-miterlimit="10" /><polyline points="652,794 644,817 636,794 " fill="none" stroke="#555555" stroke-width="2px" stroke-dashoffset="0" stroke-linejoin="round" stroke-miterlimit="10" /></g><g clip-path="url(#)" transform="matrix(1 0 0 1 0 0)" /><g clip-path="url(#)" transform="matrix(1 0 0 1 0 0)"><path fill="none" d="M 648 646 L 648 729  647.9999 728.9999 C 647.9999 730.1046  647.1046 730.9999  646 730.9999 L 646 731  646 731  645.9999 730.9999 C 644.8954 731  643.9999 731.8954  643.9999 733 L 644 733  644 817 " stroke="#555555" stroke-width="2px" stroke-dashoffset="0" stroke-linejoin="round" stroke-miterlimit="10" /><polyline points="652,794 644,817 636,794 " fill="none" stroke="#555555" stroke-width="2px" stroke-dashoffset="0" stroke-linejoin="round" stroke-miterlimit="10" /></g><g clip-path="url(#)" transform="matrix(1 0 0 1 0 0)" /><g clip-path="url(#)" transform="matrix(1 0 0 1 0 0)" /><g clip-path="url(#cp10)" transform="matrix(1 0 0 1 0 0)"><rect x="566px" y="818px" width="160px" height="67px" fill="rgba(85,85,85,0.227)" /></g><g clip-path="url(#)" transform="matrix(1 0 0 1 0 0)" /><g clip-path="url(#cp11)" transform="matrix(1 0 0 1 0 0)"><path fill="none" d="M 725.0198 876.7014 C 725.0198 880.8435  721.6621 884.2014  717.52 884.2014 L 717.52 884.2014  574.52 884.2014  574.52 884.2014 C 570.3777 884.2014  567.02 880.8435  567.02 876.7014 L 567.02 826.4009  567.0198 826.4009 C 567.0198 822.2587  570.3777 818.9009  574.5198 818.9009 L 574.52 818.9009  717.52 818.9009  717.5198 818.9009 C 721.6621 818.9009  725.0198 822.2587  725.0198 826.4009  725.0198 826.4009  725.0198 826.4009  725.0198 826.4009 L 725.02 826.4009  725.02 876.7014 z " stroke="rgba(85,85,85,0.031)" stroke-width="16px" stroke-dashoffset="0" stroke-linejoin="round" stroke-miterlimit="10" /><path fill="none" d="M 725.0198 876.7014 C 725.0198 880.8435  721.6621 884.2014  717.52 884.2014 L 717.52 884.2014  574.52 884.2014  574.52 884.2014 C 570.3777 884.2014  567.02 880.8435  567.02 876.7014 L 567.02 826.4009  567.0198 826.4009 C 567.0198 822.2587  570.3777 818.9009  574.5198 818.9009 L 574.52 818.9009  717.52 818.9009  717.5198 818.9009 C 721.6621 818.9009  725.0198 822.2587  725.0198 826.4009  725.0198 826.4009  725.0198 826.4009  725.0198 826.4009 L 725.02 826.4009  725.02 876.7014 z " stroke="rgba(85,85,85,0.031)" stroke-width="14px" stroke-dashoffset="0" stroke-linejoin="round" stroke-miterlimit="10" /><path fill="none" d="M 725.0198 876.7014 C 725.0198 880.8435  721.6621 884.2014  717.52 884.2014 L 717.52 884.2014  574.52 884.2014  574.52 884.2014 C 570.3777 884.2014  567.02 880.8435  567.02 876.7014 L 567.02 826.4009  567.0198 826.4009 C 567.0198 822.2587  570.3777 818.9009  574.5198 818.9009 L 574.52 818.9009  717.52 818.9009  717.5198 818.9009 C 721.6621 818.9009  725.0198 822.2587  725.0198 826.4009  725.0198 826.4009  725.0198 826.4009  725.0198 826.4009 L 725.02 826.4009  725.02 876.7014 z " stroke="rgba(85,85,85,0.031)" stroke-width="12px" stroke-dashoffset="0" stroke-linejoin="round" stroke-miterlimit="10" /><path fill="none" d="M 725.0198 876.7014 C 725.0198 880.8435  721.6621 884.2014  717.52 884.2014 L 717.52 884.2014  574.52 884.2014  574.52 884.2014 C 570.3777 884.2014  567.02 880.8435  567.02 876.7014 L 567.02 826.4009  567.0198 826.4009 C 567.0198 822.2587  570.3777 818.9009  574.5198 818.9009 L 574.52 818.9009  717.52 818.9009  717.5198 818.9009 C 721.6621 818.9009  725.0198 822.2587  725.0198 826.4009  725.0198 826.4009  725.0198 826.4009  725.0198 826.4009 L 725.02 826.4009  725.02 876.7014 z " stroke="rgba(85,85,85,0.031)" stroke-width="10px" stroke-dashoffset="0" stroke-linejoin="round" stroke-miterlimit="10" /><path fill="none" d="M 725.0198 876.7014 C 725.0198 880.8435  721.6621 884.2014  717.52 884.2014 L 717.52 884.2014  574.52 884.2014  574.52 884.2014 C 570.3777 884.2014  567.02 880.8435  567.02 876.7014 L 567.02 826.4009  567.0198 826.4009 C 567.0198 822.2587  570.3777 818.9009  574.5198 818.9009 L 574.52 818.9009  717.52 818.9009  717.5198 818.9009 C 721.6621 818.9009  725.0198 822.2587  725.0198 826.4009  725.0198 826.4009  725.0198 826.4009  725.0198 826.4009 L 725.02 826.4009  725.02 876.7014 z " stroke="rgba(85,85,85,0.031)" stroke-width="8px" stroke-dashoffset="0" stroke-linejoin="round" stroke-miterlimit="10" /><path fill="none" d="M 725.0198 876.7014 C 725.0198 880.8435  721.6621 884.2014  717.52 884.2014 L 717.52 884.2014  574.52 884.2014  574.52 884.2014 C 570.3777 884.2014  567.02 880.8435  567.02 876.7014 L 567.02 826.4009  567.0198 826.4009 C 567.0198 822.2587  570.3777 818.9009  574.5198 818.9009 L 574.52 818.9009  717.52 818.9009  717.5198 818.9009 C 721.6621 818.9009  725.0198 822.2587  725.0198 826.4009  725.0198 826.4009  725.0198 826.4009  725.0198 826.4009 L 725.02 826.4009  725.02 876.7014 z " stroke="rgba(85,85,85,0.031)" stroke-width="6px" stroke-dashoffset="0" stroke-linejoin="round" stroke-miterlimit="10" /><path fill="none" d="M 725.0198 876.7014 C 725.0198 880.8435  721.6621 884.2014  717.52 884.2014 L 717.52 884.2014  574.52 884.2014  574.52 884.2014 C 570.3777 884.2014  567.02 880.8435  567.02 876.7014 L 567.02 826.4009  567.0198 826.4009 C 567.0198 822.2587  570.3777 818.9009  574.5198 818.9009 L 574.52 818.9009  717.52 818.9009  717.5198 818.9009 C 721.6621 818.9009  725.0198 822.2587  725.0198 826.4009  725.0198 826.4009  725.0198 826.4009  725.0198 826.4009 L 725.02 826.4009  725.02 876.7014 z " stroke="rgba(85,85,85,0.031)" stroke-width="4px" stroke-dashoffset="0" stroke-linejoin="round" stroke-miterlimit="10" /><path fill="none" d="M 725.0198 876.7014 C 725.0198 880.8435  721.6621 884.2014  717.52 884.2014 L 717.52 884.2014  574.52 884.2014  574.52 884.2014 C 570.3777 884.2014  567.02 880.8435  567.02 876.7014 L 567.02 826.4009  567.0198 826.4009 C 567.0198 822.2587  570.3777 818.9009  574.5198 818.9009 L 574.52 818.9009  717.52 818.9009  717.5198 818.9009 C 721.6621 818.9009  725.0198 822.2587  725.0198 826.4009  725.0198 826.4009  725.0198 826.4009  725.0198 826.4009 L 725.02 826.4009  725.02 876.7014 z " stroke="rgba(85,85,85,0.031)" stroke-width="2px" stroke-dashoffset="0" stroke-linejoin="round" stroke-miterlimit="10" /></g><g clip-path="url(#)" transform="matrix(1 0 0 1 0 0)"><path d="M 723.0198 874.7014 C 723.0198 878.8435  719.6621 882.2014  715.52 882.2014 L 715.52 882.2014  572.52 882.2014  572.52 882.2014 C 568.3777 882.2014  565.02 878.8435  565.02 874.7014 L 565.02 824.4009  565.0198 824.4009 C 565.0198 820.2587  568.3777 816.9009  572.5198 816.9009 L 572.52 816.9009  715.52 816.9009  715.5198 816.9009 C 719.6621 816.9009  723.0198 820.2587  723.0198 824.4009  723.0198 824.4009  723.0198 824.4009  723.0198 824.4009 L 723.02 824.4009  723.02 874.7014 z " fill="#F2F2F2" /><path fill="none" d="M 723.0198 874.7014 C 723.0198 878.8435  719.6621 882.2014  715.52 882.2014 L 715.52 882.2014  572.52 882.2014  572.52 882.2014 C 568.3777 882.2014  565.02 878.8435  565.02 874.7014 L 565.02 824.4009  565.0198 824.4009 C 565.0198 820.2587  568.3777 816.9009  572.5198 816.9009 L 572.52 816.9009  715.52 816.9009  715.5198 816.9009 C 719.6621 816.9009  723.0198 820.2587  723.0198 824.4009  723.0198 824.4009  723.0198 824.4009  723.0198 824.4009 L 723.02 824.4009  723.02 874.7014 z " stroke="#555555" stroke-width="2px" stroke-dashoffset="0" stroke-linejoin="round" stroke-miterlimit="10" /></g><g clip-path="url(#cp12)" transform="matrix(1 0 0 1 0 0)"><text x="577px" y="839.62109375px" font-family="Segoe UI" font-size="10.5pt" font-weight="bold" fill="#555555">Check existing calib</text><line x1="565px" y1="848px" x2="723px" y2="848px" stroke="#555555" stroke-width="2px" stroke-dashoffset="0" stroke-linejoin="round" stroke-miterlimit="10" /><text x="570px" y="870.9609375px" font-family="Segoe UI" font-size="9pt" fill="#555555">Check</text><text x="602px" y="870.9609375px" font-family="Segoe UI" font-size="9pt" fill="#555555">Existing</text><text x="643px" y="870.9609375px" font-family="Segoe UI" font-size="9pt" fill="#555555">Calib </text><text x="672px" y="870.9609375px" font-family="Segoe UI" font-size="9pt" fill="#555555">/</text><text x="568px" y="869.9609375px" font-family="Segoe UI" font-size="9pt" fill="#555555"> </text></g><g clip-path="url(#)" transform="matrix(1 0 0 1 0 0)" /><g clip-path="url(#)" transform="matrix(1 0 0 1 0 0)" /><g clip-path="url(#)" transform="matrix(1 0 0 1 0 0)"><path fill="none" d="M 432 646 L 432 721 C 432 726.5228  436.4771 731  442 730.9999 L 442 731  634 731  633.9999 731 C 639.5228 730.9999  643.9999 735.4771  643.9999 740.9999  643.9999 740.9999  643.9999 741  643.9999 741 L 644 741  644 817 " stroke="#555555" stroke-width="2px" stroke-dashoffset="0" stroke-linejoin="round" stroke-miterlimit="10" /><polyline points="652,794 644,817 636,794 " fill="none" stroke="#555555" stroke-width="2px" stroke-dashoffset="0" stroke-linejoin="round" stroke-miterlimit="10" /></g><g clip-path="url(#)" transform="matrix(1 0 0 1 0 0)" /><g clip-path="url(#)" transform="matrix(1 0 0 1 0 0)" /><g clip-path="url(#cp13)" transform="matrix(1 0 0 1 0 0)"><rect x="825px" y="589px" width="32px" height="32px" fill="rgba(85,85,85,0.227)" /></g><g clip-path="url(#)" transform="matrix(1 0 0 1 0 0)" /><g clip-path="url(#cp14)" transform="matrix(1 0 0 1 0 0)"><path fill="none" d="M 855.9551 604.9294 C 855.9551 613.2136  849.2393 619.9294  840.9551 619.9294  832.6707 619.9294  825.9551 613.2136  825.9551 604.9294  825.9551 596.6451  832.6707 589.9294  840.9551 589.9294  849.2393 589.9294  855.9551 596.6451  855.9551 604.9294 z " stroke="rgba(85,85,85,0.031)" stroke-width="16px" stroke-dashoffset="0" stroke-linejoin="round" stroke-miterlimit="10" /><path fill="none" d="M 855.9551 604.9294 C 855.9551 613.2136  849.2393 619.9294  840.9551 619.9294  832.6707 619.9294  825.9551 613.2136  825.9551 604.9294  825.9551 596.6451  832.6707 589.9294  840.9551 589.9294  849.2393 589.9294  855.9551 596.6451  855.9551 604.9294 z " stroke="rgba(85,85,85,0.031)" stroke-width="14px" stroke-dashoffset="0" stroke-linejoin="round" stroke-miterlimit="10" /><path fill="none" d="M 855.9551 604.9294 C 855.9551 613.2136  849.2393 619.9294  840.9551 619.9294  832.6707 619.9294  825.9551 613.2136  825.9551 604.9294  825.9551 596.6451  832.6707 589.9294  840.9551 589.9294  849.2393 589.9294  855.9551 596.6451  855.9551 604.9294 z " stroke="rgba(85,85,85,0.031)" stroke-width="12px" stroke-dashoffset="0" stroke-linejoin="round" stroke-miterlimit="10" /><path fill="none" d="M 855.9551 604.9294 C 855.9551 613.2136  849.2393 619.9294  840.9551 619.9294  832.6707 619.9294  825.9551 613.2136  825.9551 604.9294  825.9551 596.6451  832.6707 589.9294  840.9551 589.9294  849.2393 589.9294  855.9551 596.6451  855.9551 604.9294 z " stroke="rgba(85,85,85,0.031)" stroke-width="10px" stroke-dashoffset="0" stroke-linejoin="round" stroke-miterlimit="10" /><path fill="none" d="M 855.9551 604.9294 C 855.9551 613.2136  849.2393 619.9294  840.9551 619.9294  832.6707 619.9294  825.9551 613.2136  825.9551 604.9294  825.9551 596.6451  832.6707 589.9294  840.9551 589.9294  849.2393 589.9294  855.9551 596.6451  855.9551 604.9294 z " stroke="rgba(85,85,85,0.031)" stroke-width="8px" stroke-dashoffset="0" stroke-linejoin="round" stroke-miterlimit="10" /><path fill="none" d="M 855.9551 604.9294 C 855.9551 613.2136  849.2393 619.9294  840.9551 619.9294  832.6707 619.9294  825.9551 613.2136  825.9551 604.9294  825.9551 596.6451  832.6707 589.9294  840.9551 589.9294  849.2393 589.9294  855.9551 596.6451  855.9551 604.9294 z " stroke="rgba(85,85,85,0.031)" stroke-width="6px" stroke-dashoffset="0" stroke-linejoin="round" stroke-miterlimit="10" /><path fill="none" d="M 855.9551 604.9294 C 855.9551 613.2136  849.2393 619.9294  840.9551 619.9294  832.6707 619.9294  825.9551 613.2136  825.9551 604.9294  825.9551 596.6451  832.6707 589.9294  840.9551 589.9294  849.2393 589.9294  855.9551 596.6451  855.9551 604.9294 z " stroke="rgba(85,85,85,0.031)" stroke-width="4px" stroke-dashoffset="0" stroke-linejoin="round" stroke-miterlimit="10" /><path fill="none" d="M 855.9551 604.9294 C 855.9551 613.2136  849.2393 619.9294  840.9551 619.9294  832.6707 619.9294  825.9551 613.2136  825.9551 604.9294  825.9551 596.6451  832.6707 589.9294  840.9551 589.9294  849.2393 589.9294  855.9551 596.6451  855.9551 604.9294 z " stroke="rgba(85,85,85,0.031)" stroke-width="2px" stroke-dashoffset="0" stroke-linejoin="round" stroke-miterlimit="10" /></g><g clip-path="url(#)" transform="matrix(1 0 0 1 0 0)"><ellipse cx="839px" cy="603px" rx="9px" ry="9px" fill="#555555" /><ellipse cx="839px" cy="603px" rx="15px" ry="15px" fill="none" stroke="#555555" stroke-width="2px" stroke-dashoffset="0" stroke-linejoin="round" stroke-miterlimit="10" /></g><g clip-path="url(#)" transform="matrix(1 0 0 1 0 0)" /><g clip-path="url(#)" transform="matrix(1 0 0 1 0 0)" /><g clip-path="url(#cp15)" transform="matrix(1 0 0 1 0 0)"><rect x="574px" y="567px" width="152px" height="82px" fill="rgba(85,85,85,0.227)" /></g><g clip-path="url(#)" transform="matrix(1 0 0 1 0 0)" /><g clip-path="url(#cp16)" transform="matrix(1 0 0 1 0 0)"><path fill="none" d="M 724.9639 640.4246 C 724.9639 644.5667  721.6062 647.9246  717.4641 647.9246 L 717.4641 647.9246  582.4641 647.9246  582.4641 647.9246 C 578.3218 647.9246  574.9641 644.5667  574.9641 640.4246 L 574.9641 575.4294  574.9639 575.4294 C 574.9639 571.2872  578.3218 567.9294  582.4639 567.9294 L 582.4641 567.9294  717.4641 567.9294  717.4639 567.9294 C 721.6062 567.9294  724.9639 571.2872  724.9639 575.4294  724.9639 575.4294  724.9639 575.4294  724.9639 575.4294 L 724.9641 575.4294  724.9641 640.4246 z " stroke="rgba(85,85,85,0.031)" stroke-width="16px" stroke-dashoffset="0" stroke-linejoin="round" stroke-miterlimit="10" /><path fill="none" d="M 724.9639 640.4246 C 724.9639 644.5667  721.6062 647.9246  717.4641 647.9246 L 717.4641 647.9246  582.4641 647.9246  582.4641 647.9246 C 578.3218 647.9246  574.9641 644.5667  574.9641 640.4246 L 574.9641 575.4294  574.9639 575.4294 C 574.9639 571.2872  578.3218 567.9294  582.4639 567.9294 L 582.4641 567.9294  717.4641 567.9294  717.4639 567.9294 C 721.6062 567.9294  724.9639 571.2872  724.9639 575.4294  724.9639 575.4294  724.9639 575.4294  724.9639 575.4294 L 724.9641 575.4294  724.9641 640.4246 z " stroke="rgba(85,85,85,0.031)" stroke-width="14px" stroke-dashoffset="0" stroke-linejoin="round" stroke-miterlimit="10" /><path fill="none" d="M 724.9639 640.4246 C 724.9639 644.5667  721.6062 647.9246  717.4641 647.9246 L 717.4641 647.9246  582.4641 647.9246  582.4641 647.9246 C 578.3218 647.9246  574.9641 644.5667  574.9641 640.4246 L 574.9641 575.4294  574.9639 575.4294 C 574.9639 571.2872  578.3218 567.9294  582.4639 567.9294 L 582.4641 567.9294  717.4641 567.9294  717.4639 567.9294 C 721.6062 567.9294  724.9639 571.2872  724.9639 575.4294  724.9639 575.4294  724.9639 575.4294  724.9639 575.4294 L 724.9641 575.4294  724.9641 640.4246 z " stroke="rgba(85,85,85,0.031)" stroke-width="12px" stroke-dashoffset="0" stroke-linejoin="round" stroke-miterlimit="10" /><path fill="none" d="M 724.9639 640.4246 C 724.9639 644.5667  721.6062 647.9246  717.4641 647.9246 L 717.4641 647.9246  582.4641 647.9246  582.4641 647.9246 C 578.3218 647.9246  574.9641 644.5667  574.9641 640.4246 L 574.9641 575.4294  574.9639 575.4294 C 574.9639 571.2872  578.3218 567.9294  582.4639 567.9294 L 582.4641 567.9294  717.4641 567.9294  717.4639 567.9294 C 721.6062 567.9294  724.9639 571.2872  724.9639 575.4294  724.9639 575.4294  724.9639 575.4294  724.9639 575.4294 L 724.9641 575.4294  724.9641 640.4246 z " stroke="rgba(85,85,85,0.031)" stroke-width="10px" stroke-dashoffset="0" stroke-linejoin="round" stroke-miterlimit="10" /><path fill="none" d="M 724.9639 640.4246 C 724.9639 644.5667  721.6062 647.9246  717.4641 647.9246 L 717.4641 647.9246  582.4641 647.9246  582.4641 647.9246 C 578.3218 647.9246  574.9641 644.5667  574.9641 640.4246 L 574.9641 575.4294  574.9639 575.4294 C 574.9639 571.2872  578.3218 567.9294  582.4639 567.9294 L 582.4641 567.9294  717.4641 567.9294  717.4639 567.9294 C 721.6062 567.9294  724.9639 571.2872  724.9639 575.4294  724.9639 575.4294  724.9639 575.4294  724.9639 575.4294 L 724.9641 575.4294  724.9641 640.4246 z " stroke="rgba(85,85,85,0.031)" stroke-width="8px" stroke-dashoffset="0" stroke-linejoin="round" stroke-miterlimit="10" /><path fill="none" d="M 724.9639 640.4246 C 724.9639 644.5667  721.6062 647.9246  717.4641 647.9246 L 717.4641 647.9246  582.4641 647.9246  582.4641 647.9246 C 578.3218 647.9246  574.9641 644.5667  574.9641 640.4246 L 574.9641 575.4294  574.9639 575.4294 C 574.9639 571.2872  578.3218 567.9294  582.4639 567.9294 L 582.4641 567.9294  717.4641 567.9294  717.4639 567.9294 C 721.6062 567.9294  724.9639 571.2872  724.9639 575.4294  724.9639 575.4294  724.9639 575.4294  724.9639 575.4294 L 724.9641 575.4294  724.9641 640.4246 z " stroke="rgba(85,85,85,0.031)" stroke-width="6px" stroke-dashoffset="0" stroke-linejoin="round" stroke-miterlimit="10" /><path fill="none" d="M 724.9639 640.4246 C 724.9639 644.5667  721.6062 647.9246  717.4641 647.9246 L 717.4641 647.9246  582.4641 647.9246  582.4641 647.9246 C 578.3218 647.9246  574.9641 644.5667  574.9641 640.4246 L 574.9641 575.4294  574.9639 575.4294 C 574.9639 571.2872  578.3218 567.9294  582.4639 567.9294 L 582.4641 567.9294  717.4641 567.9294  717.4639 567.9294 C 721.6062 567.9294  724.9639 571.2872  724.9639 575.4294  724.9639 575.4294  724.9639 575.4294  724.9639 575.4294 L 724.9641 575.4294  724.9641 640.4246 z " stroke="rgba(85,85,85,0.031)" stroke-width="4px" stroke-dashoffset="0" stroke-linejoin="round" stroke-miterlimit="10" /><path fill="none" d="M 724.9639 640.4246 C 724.9639 644.5667  721.6062 647.9246  717.4641 647.9246 L 717.4641 647.9246  582.4641 647.9246  582.4641 647.9246 C 578.3218 647.9246  574.9641 644.5667  574.9641 640.4246 L 574.9641 575.4294  574.9639 575.4294 C 574.9639 571.2872  578.3218 567.9294  582.4639 567.9294 L 582.4641 567.9294  717.4641 567.9294  717.4639 567.9294 C 721.6062 567.9294  724.9639 571.2872  724.9639 575.4294  724.9639 575.4294  724.9639 575.4294  724.9639 575.4294 L 724.9641 575.4294  724.9641 640.4246 z " stroke="rgba(85,85,85,0.031)" stroke-width="2px" stroke-dashoffset="0" stroke-linejoin="round" stroke-miterlimit="10" /></g><g clip-path="url(#)" transform="matrix(1 0 0 1 0 0)"><path d="M 722.9639 638.4246 C 722.9639 642.5667  719.6062 645.9246  715.4641 645.9246 L 715.4641 645.9246  580.4641 645.9246  580.4641 645.9246 C 576.3218 645.9246  572.9641 642.5667  572.9641 638.4246 L 572.9641 573.4294  572.9639 573.4294 C 572.9639 569.2872  576.3218 565.9294  580.4639 565.9294 L 580.4641 565.9294  715.4641 565.9294  715.4639 565.9294 C 719.6062 565.9294  722.9639 569.2872  722.9639 573.4294  722.9639 573.4294  722.9639 573.4294  722.9639 573.4294 L 722.9641 573.4294  722.9641 638.4246 z " fill="#F2F2F2" /><path fill="none" d="M 722.9639 638.4246 C 722.9639 642.5667  719.6062 645.9246  715.4641 645.9246 L 715.4641 645.9246  580.4641 645.9246  580.4641 645.9246 C 576.3218 645.9246  572.9641 642.5667  572.9641 638.4246 L 572.9641 573.4294  572.9639 573.4294 C 572.9639 569.2872  576.3218 565.9294  580.4639 565.9294 L 580.4641 565.9294  715.4641 565.9294  715.4639 565.9294 C 719.6062 565.9294  722.9639 569.2872  722.9639 573.4294  722.9639 573.4294  722.9639 573.4294  722.9639 573.4294 L 722.9641 573.4294  722.9641 638.4246 z " stroke="#555555" stroke-width="2px" stroke-dashoffset="0" stroke-linejoin="round" stroke-miterlimit="10" /></g><g clip-path="url(#cp17)" transform="matrix(1 0 0 1 0 0)"><text x="590px" y="589.62109375px" font-family="Segoe UI" font-size="10.5pt" font-weight="bold" fill="#555555">Calibrate current </text><text x="620px" y="608.62109375px" font-family="Segoe UI" font-size="10.5pt" font-weight="bold" fill="#555555">low side</text><line x1="573px" y1="617px" x2="723px" y2="617px" stroke="#555555" stroke-width="2px" stroke-dashoffset="0" stroke-linejoin="round" stroke-miterlimit="10" /><text x="578px" y="639.9609375px" font-family="Segoe UI" font-size="9pt" fill="#555555">Calib</text><text x="604px" y="639.9609375px" font-family="Segoe UI" font-size="9pt" fill="#555555">Curr </text><text x="629px" y="639.9609375px" font-family="Segoe UI" font-size="9pt" fill="#555555">/</text><text x="576px" y="638.9609375px" font-family="Segoe UI" font-size="9pt" fill="#555555"> </text></g><g clip-path="url(#)" transform="matrix(1 0 0 1 0 0)" /><g clip-path="url(#)" transform="matrix(1 0 0 1 0 0)" /><g clip-path="url(#)" transform="matrix(1 0 0 1 0 0)" /><g clip-path="url(#cp18)" transform="matrix(1 0 0 1 0 0)"><rect x="358px" y="567px" width="152px" height="82px" fill="rgba(85,85,85,0.227)" /></g><g clip-path="url(#)" transform="matrix(1 0 0 1 0 0)" /><g clip-path="url(#cp19)" transform="matrix(1 0 0 1 0 0)"><path fill="none" d="M 508.9268 640.4236 C 508.9268 644.5657  505.5691 647.9236  501.427 647.9236 L 501.427 647.9236  366.427 647.9236  366.427 647.9236 C 362.2847 647.9236  358.927 644.5657  358.927 640.4236 L 358.927 575.4236  358.9268 575.4236 C 358.9268 571.2814  362.2847 567.9236  366.4268 567.9236 L 366.427 567.9236  501.427 567.9236  501.4268 567.9236 C 505.5691 567.9236  508.9268 571.2814  508.9268 575.4236  508.9268 575.4236  508.9268 575.4236  508.9268 575.4236 L 508.927 575.4236  508.927 640.4236 z " stroke="rgba(85,85,85,0.031)" stroke-width="16px" stroke-dashoffset="0" stroke-linejoin="round" stroke-miterlimit="10" /><path fill="none" d="M 508.9268 640.4236 C 508.9268 644.5657  505.5691 647.9236  501.427 647.9236 L 501.427 647.9236  366.427 647.9236  366.427 647.9236 C 362.2847 647.9236  358.927 644.5657  358.927 640.4236 L 358.927 575.4236  358.9268 575.4236 C 358.9268 571.2814  362.2847 567.9236  366.4268 567.9236 L 366.427 567.9236  501.427 567.9236  501.4268 567.9236 C 505.5691 567.9236  508.9268 571.2814  508.9268 575.4236  508.9268 575.4236  508.9268 575.4236  508.9268 575.4236 L 508.927 575.4236  508.927 640.4236 z " stroke="rgba(85,85,85,0.031)" stroke-width="14px" stroke-dashoffset="0" stroke-linejoin="round" stroke-miterlimit="10" /><path fill="none" d="M 508.9268 640.4236 C 508.9268 644.5657  505.5691 647.9236  501.427 647.9236 L 501.427 647.9236  366.427 647.9236  366.427 647.9236 C 362.2847 647.9236  358.927 644.5657  358.927 640.4236 L 358.927 575.4236  358.9268 575.4236 C 358.9268 571.2814  362.2847 567.9236  366.4268 567.9236 L 366.427 567.9236  501.427 567.9236  501.4268 567.9236 C 505.5691 567.9236  508.9268 571.2814  508.9268 575.4236  508.9268 575.4236  508.9268 575.4236  508.9268 575.4236 L 508.927 575.4236  508.927 640.4236 z " stroke="rgba(85,85,85,0.031)" stroke-width="12px" stroke-dashoffset="0" stroke-linejoin="round" stroke-miterlimit="10" /><path fill="none" d="M 508.9268 640.4236 C 508.9268 644.5657  505.5691 647.9236  501.427 647.9236 L 501.427 647.9236  366.427 647.9236  366.427 647.9236 C 362.2847 647.9236  358.927 644.5657  358.927 640.4236 L 358.927 575.4236  358.9268 575.4236 C 358.9268 571.2814  362.2847 567.9236  366.4268 567.9236 L 366.427 567.9236  501.427 567.9236  501.4268 567.9236 C 505.5691 567.9236  508.9268 571.2814  508.9268 575.4236  508.9268 575.4236  508.9268 575.4236  508.9268 575.4236 L 508.927 575.4236  508.927 640.4236 z " stroke="rgba(85,85,85,0.031)" stroke-width="10px" stroke-dashoffset="0" stroke-linejoin="round" stroke-miterlimit="10" /><path fill="none" d="M 508.9268 640.4236 C 508.9268 644.5657  505.5691 647.9236  501.427 647.9236 L 501.427 647.9236  366.427 647.9236  366.427 647.9236 C 362.2847 647.9236  358.927 644.5657  358.927 640.4236 L 358.927 575.4236  358.9268 575.4236 C 358.9268 571.2814  362.2847 567.9236  366.4268 567.9236 L 366.427 567.9236  501.427 567.9236  501.4268 567.9236 C 505.5691 567.9236  508.9268 571.2814  508.9268 575.4236  508.9268 575.4236  508.9268 575.4236  508.9268 575.4236 L 508.927 575.4236  508.927 640.4236 z " stroke="rgba(85,85,85,0.031)" stroke-width="8px" stroke-dashoffset="0" stroke-linejoin="round" stroke-miterlimit="10" /><path fill="none" d="M 508.9268 640.4236 C 508.9268 644.5657  505.5691 647.9236  501.427 647.9236 L 501.427 647.9236  366.427 647.9236  366.427 647.9236 C 362.2847 647.9236  358.927 644.5657  358.927 640.4236 L 358.927 575.4236  358.9268 575.4236 C 358.9268 571.2814  362.2847 567.9236  366.4268 567.9236 L 366.427 567.9236  501.427 567.9236  501.4268 567.9236 C 505.5691 567.9236  508.9268 571.2814  508.9268 575.4236  508.9268 575.4236  508.9268 575.4236  508.9268 575.4236 L 508.927 575.4236  508.927 640.4236 z " stroke="rgba(85,85,85,0.031)" stroke-width="6px" stroke-dashoffset="0" stroke-linejoin="round" stroke-miterlimit="10" /><path fill="none" d="M 508.9268 640.4236 C 508.9268 644.5657  505.5691 647.9236  501.427 647.9236 L 501.427 647.9236  366.427 647.9236  366.427 647.9236 C 362.2847 647.9236  358.927 644.5657  358.927 640.4236 L 358.927 575.4236  358.9268 575.4236 C 358.9268 571.2814  362.2847 567.9236  366.4268 567.9236 L 366.427 567.9236  501.427 567.9236  501.4268 567.9236 C 505.5691 567.9236  508.9268 571.2814  508.9268 575.4236  508.9268 575.4236  508.9268 575.4236  508.9268 575.4236 L 508.927 575.4236  508.927 640.4236 z " stroke="rgba(85,85,85,0.031)" stroke-width="4px" stroke-dashoffset="0" stroke-linejoin="round" stroke-miterlimit="10" /><path fill="none" d="M 508.9268 640.4236 C 508.9268 644.5657  505.5691 647.9236  501.427 647.9236 L 501.427 647.9236  366.427 647.9236  366.427 647.9236 C 362.2847 647.9236  358.927 644.5657  358.927 640.4236 L 358.927 575.4236  358.9268 575.4236 C 358.9268 571.2814  362.2847 567.9236  366.4268 567.9236 L 366.427 567.9236  501.427 567.9236  501.4268 567.9236 C 505.5691 567.9236  508.9268 571.2814  508.9268 575.4236  508.9268 575.4236  508.9268 575.4236  508.9268 575.4236 L 508.927 575.4236  508.927 640.4236 z " stroke="rgba(85,85,85,0.031)" stroke-width="2px" stroke-dashoffset="0" stroke-linejoin="round" stroke-miterlimit="10" /></g><g clip-path="url(#)" transform="matrix(1 0 0 1 0 0)"><path d="M 506.9268 638.4236 C 506.9268 642.5657  503.5691 645.9236  499.427 645.9236 L 499.427 645.9236  364.427 645.9236  364.427 645.9236 C 360.2847 645.9236  356.927 642.5657  356.927 638.4236 L 356.927 573.4236  356.9268 573.4236 C 356.9268 569.2814  360.2847 565.9236  364.4268 565.9236 L 364.427 565.9236  499.427 565.9236  499.4268 565.9236 C 503.5691 565.9236  506.9268 569.2814  506.9268 573.4236  506.9268 573.4236  506.9268 573.4236  506.9268 573.4236 L 506.927 573.4236  506.927 638.4236 z " fill="#F2F2F2" /><path fill="none" d="M 506.9268 638.4236 C 506.9268 642.5657  503.5691 645.9236  499.427 645.9236 L 499.427 645.9236  364.427 645.9236  364.427 645.9236 C 360.2847 645.9236  356.927 642.5657  356.927 638.4236 L 356.927 573.4236  356.9268 573.4236 C 356.9268 569.2814  360.2847 565.9236  364.4268 565.9236 L 364.427 565.9236  499.427 565.9236  499.4268 565.9236 C 503.5691 565.9236  506.9268 569.2814  506.9268 573.4236  506.9268 573.4236  506.9268 573.4236  506.9268 573.4236 L 506.927 573.4236  506.927 638.4236 z " stroke="#555555" stroke-width="2px" stroke-dashoffset="0" stroke-linejoin="round" stroke-miterlimit="10" /></g><g clip-path="url(#cp20)" transform="matrix(1 0 0 1 0 0)"><text x="374px" y="589.62109375px" font-family="Segoe UI" font-size="10.5pt" font-weight="bold" fill="#555555">Calibrate voltage </text><text x="404px" y="608.62109375px" font-family="Segoe UI" font-size="10.5pt" font-weight="bold" fill="#555555">low side</text><line x1="357px" y1="617px" x2="507px" y2="617px" stroke="#555555" stroke-width="2px" stroke-dashoffset="0" stroke-linejoin="round" stroke-miterlimit="10" /><text x="362px" y="639.9609375px" font-family="Segoe UI" font-size="9pt" fill="#555555">Calib</text><text x="388px" y="639.9609375px" font-family="Segoe UI" font-size="9pt" fill="#555555">Volt</text><text x="408px" y="639.9609375px" font-family="Segoe UI" font-size="9pt" fill="#555555">LS </text><text x="423px" y="639.9609375px" font-family="Segoe UI" font-size="9pt" fill="#555555">/</text><text x="360px" y="638.9609375px" font-family="Segoe UI" font-size="9pt" fill="#555555"> </text></g><g clip-path="url(#)" transform="matrix(1 0 0 1 0 0)" /><g clip-path="url(#)" transform="matrix(1 0 0 1 0 0)" /><g clip-path="url(#)" transform="matrix(1 0 0 1 0 0)" /><g clip-path="url(#cp21)" transform="matrix(1 0 0 1 0 0)"><rect x="142px" y="567px" width="152px" height="82px" fill="rgba(85,85,85,0.227)" /></g><g clip-path="url(#)" transform="matrix(1 0 0 1 0 0)" /><g clip-path="url(#cp22)" transform="matrix(1 0 0 1 0 0)"><path fill="none" d="M 292.8896 640.4246 C 292.8896 644.5667  289.532 647.9246  285.3899 647.9246 L 285.3899 647.9246  150.3899 647.9246  150.3899 647.9246 C 146.2476 647.9246  142.8899 644.5667  142.8899 640.4246 L 142.8899 575.4246  142.8896 575.4246 C 142.8896 571.2824  146.2476 567.9246  150.3896 567.9246 L 150.3899 567.9246  285.3899 567.9246  285.3896 567.9246 C 289.532 567.9246  292.8896 571.2824  292.8896 575.4246  292.8896 575.4246  292.8896 575.4246  292.8896 575.4246 L 292.8899 575.4246  292.8899 640.4246 z " stroke="rgba(85,85,85,0.031)" stroke-width="16px" stroke-dashoffset="0" stroke-linejoin="round" stroke-miterlimit="10" /><path fill="none" d="M 292.8896 640.4246 C 292.8896 644.5667  289.532 647.9246  285.3899 647.9246 L 285.3899 647.9246  150.3899 647.9246  150.3899 647.9246 C 146.2476 647.9246  142.8899 644.5667  142.8899 640.4246 L 142.8899 575.4246  142.8896 575.4246 C 142.8896 571.2824  146.2476 567.9246  150.3896 567.9246 L 150.3899 567.9246  285.3899 567.9246  285.3896 567.9246 C 289.532 567.9246  292.8896 571.2824  292.8896 575.4246  292.8896 575.4246  292.8896 575.4246  292.8896 575.4246 L 292.8899 575.4246  292.8899 640.4246 z " stroke="rgba(85,85,85,0.031)" stroke-width="14px" stroke-dashoffset="0" stroke-linejoin="round" stroke-miterlimit="10" /><path fill="none" d="M 292.8896 640.4246 C 292.8896 644.5667  289.532 647.9246  285.3899 647.9246 L 285.3899 647.9246  150.3899 647.9246  150.3899 647.9246 C 146.2476 647.9246  142.8899 644.5667  142.8899 640.4246 L 142.8899 575.4246  142.8896 575.4246 C 142.8896 571.2824  146.2476 567.9246  150.3896 567.9246 L 150.3899 567.9246  285.3899 567.9246  285.3896 567.9246 C 289.532 567.9246  292.8896 571.2824  292.8896 575.4246  292.8896 575.4246  292.8896 575.4246  292.8896 575.4246 L 292.8899 575.4246  292.8899 640.4246 z " stroke="rgba(85,85,85,0.031)" stroke-width="12px" stroke-dashoffset="0" stroke-linejoin="round" stroke-miterlimit="10" /><path fill="none" d="M 292.8896 640.4246 C 292.8896 644.5667  289.532 647.9246  285.3899 647.9246 L 285.3899 647.9246  150.3899 647.9246  150.3899 647.9246 C 146.2476 647.9246  142.8899 644.5667  142.8899 640.4246 L 142.8899 575.4246  142.8896 575.4246 C 142.8896 571.2824  146.2476 567.9246  150.3896 567.9246 L 150.3899 567.9246  285.3899 567.9246  285.3896 567.9246 C 289.532 567.9246  292.8896 571.2824  292.8896 575.4246  292.8896 575.4246  292.8896 575.4246  292.8896 575.4246 L 292.8899 575.4246  292.8899 640.4246 z " stroke="rgba(85,85,85,0.031)" stroke-width="10px" stroke-dashoffset="0" stroke-linejoin="round" stroke-miterlimit="10" /><path fill="none" d="M 292.8896 640.4246 C 292.8896 644.5667  289.532 647.9246  285.3899 647.9246 L 285.3899 647.9246  150.3899 647.9246  150.3899 647.9246 C 146.2476 647.9246  142.8899 644.5667  142.8899 640.4246 L 142.8899 575.4246  142.8896 575.4246 C 142.8896 571.2824  146.2476 567.9246  150.3896 567.9246 L 150.3899 567.9246  285.3899 567.9246  285.3896 567.9246 C 289.532 567.9246  292.8896 571.2824  292.8896 575.4246  292.8896 575.4246  292.8896 575.4246  292.8896 575.4246 L 292.8899 575.4246  292.8899 640.4246 z " stroke="rgba(85,85,85,0.031)" stroke-width="8px" stroke-dashoffset="0" stroke-linejoin="round" stroke-miterlimit="10" /><path fill="none" d="M 292.8896 640.4246 C 292.8896 644.5667  289.532 647.9246  285.3899 647.9246 L 285.3899 647.9246  150.3899 647.9246  150.3899 647.9246 C 146.2476 647.9246  142.8899 644.5667  142.8899 640.4246 L 142.8899 575.4246  142.8896 575.4246 C 142.8896 571.2824  146.2476 567.9246  150.3896 567.9246 L 150.3899 567.9246  285.3899 567.9246  285.3896 567.9246 C 289.532 567.9246  292.8896 571.2824  292.8896 575.4246  292.8896 575.4246  292.8896 575.4246  292.8896 575.4246 L 292.8899 575.4246  292.8899 640.4246 z " stroke="rgba(85,85,85,0.031)" stroke-width="6px" stroke-dashoffset="0" stroke-linejoin="round" stroke-miterlimit="10" /><path fill="none" d="M 292.8896 640.4246 C 292.8896 644.5667  289.532 647.9246  285.3899 647.9246 L 285.3899 647.9246  150.3899 647.9246  150.3899 647.9246 C 146.2476 647.9246  142.8899 644.5667  142.8899 640.4246 L 142.8899 575.4246  142.8896 575.4246 C 142.8896 571.2824  146.2476 567.9246  150.3896 567.9246 L 150.3899 567.9246  285.3899 567.9246  285.3896 567.9246 C 289.532 567.9246  292.8896 571.2824  292.8896 575.4246  292.8896 575.4246  292.8896 575.4246  292.8896 575.4246 L 292.8899 575.4246  292.8899 640.4246 z " stroke="rgba(85,85,85,0.031)" stroke-width="4px" stroke-dashoffset="0" stroke-linejoin="round" stroke-miterlimit="10" /><path fill="none" d="M 292.8896 640.4246 C 292.8896 644.5667  289.532 647.9246  285.3899 647.9246 L 285.3899 647.9246  150.3899 647.9246  150.3899 647.9246 C 146.2476 647.9246  142.8899 644.5667  142.8899 640.4246 L 142.8899 575.4246  142.8896 575.4246 C 142.8896 571.2824  146.2476 567.9246  150.3896 567.9246 L 150.3899 567.9246  285.3899 567.9246  285.3896 567.9246 C 289.532 567.9246  292.8896 571.2824  292.8896 575.4246  292.8896 575.4246  292.8896 575.4246  292.8896 575.4246 L 292.8899 575.4246  292.8899 640.4246 z " stroke="rgba(85,85,85,0.031)" stroke-width="2px" stroke-dashoffset="0" stroke-linejoin="round" stroke-miterlimit="10" /></g><g clip-path="url(#)" transform="matrix(1 0 0 1 0 0)"><path d="M 290.8896 638.4246 C 290.8896 642.5667  287.532 645.9246  283.3899 645.9246 L 283.3899 645.9246  148.3899 645.9246  148.3899 645.9246 C 144.2476 645.9246  140.8899 642.5667  140.8899 638.4246 L 140.8899 573.4246  140.8896 573.4246 C 140.8896 569.2824  144.2476 565.9246  148.3896 565.9246 L 148.3899 565.9246  283.3899 565.9246  283.3896 565.9246 C 287.532 565.9246  290.8896 569.2824  290.8896 573.4246  290.8896 573.4246  290.8896 573.4246  290.8896 573.4246 L 290.8899 573.4246  290.8899 638.4246 z " fill="#F2F2F2" /><path fill="none" d="M 290.8896 638.4246 C 290.8896 642.5667  287.532 645.9246  283.3899 645.9246 L 283.3899 645.9246  148.3899 645.9246  148.3899 645.9246 C 144.2476 645.9246  140.8899 642.5667  140.8899 638.4246 L 140.8899 573.4246  140.8896 573.4246 C 140.8896 569.2824  144.2476 565.9246  148.3896 565.9246 L 148.3899 565.9246  283.3899 565.9246  283.3896 565.9246 C 287.532 565.9246  290.8896 569.2824  290.8896 573.4246  290.8896 573.4246  290.8896 573.4246  290.8896 573.4246 L 290.8899 573.4246  290.8899 638.4246 z " stroke="#555555" stroke-width="2px" stroke-dashoffset="0" stroke-linejoin="round" stroke-miterlimit="10" /></g><g clip-path="url(#cp23)" transform="matrix(1 0 0 1 0 0)"><text x="158px" y="589.62109375px" font-family="Segoe UI" font-size="10.5pt" font-weight="bold" fill="#555555">Calibrate voltage </text><text x="186px" y="608.62109375px" font-family="Segoe UI" font-size="10.5pt" font-weight="bold" fill="#555555">high side</text><line x1="141px" y1="617px" x2="291px" y2="617px" stroke="#555555" stroke-width="2px" stroke-dashoffset="0" stroke-linejoin="round" stroke-miterlimit="10" /><text x="146px" y="639.9609375px" font-family="Segoe UI" font-size="9pt" fill="#555555">Calib</text><text x="172px" y="639.9609375px" font-family="Segoe UI" font-size="9pt" fill="#555555">Volt</text><text x="192px" y="639.9609375px" font-family="Segoe UI" font-size="9pt" fill="#555555">HS </text><text x="210px" y="639.9609375px" font-family="Segoe UI" font-size="9pt" fill="#555555">/</text><text x="144px" y="638.9609375px" font-family="Segoe UI" font-size="9pt" fill="#555555"> </text></g><g clip-path="url(#)" transform="matrix(1 0 0 1 0 0)" /><g clip-path="url(#)" transform="matrix(1 0 0 1 0 0)" /><g clip-path="url(#)" transform="matrix(1 0 0 1 0 0)" /><g clip-path="url(#cp24)" transform="matrix(1 0 0 1 0 0)"><rect x="426px" y="178px" width="193px" height="62px" fill="rgba(85,85,85,0.227)" /></g><g clip-path="url(#)" transform="matrix(1 0 0 1 0 0)" /><g clip-path="url(#cp25)" transform="matrix(1 0 0 1 0 0)"><path fill="none" d="M 617.9607 231.4875 C 617.9607 235.6296  614.603 238.9875  610.4609 238.9875 L 610.4609 238.9875  434.4609 238.9875  434.4609 238.9875 C 430.3186 238.9875  426.9609 235.6296  426.9609 231.4875 L 426.9609 186.4875  426.9607 186.4875 C 426.9607 182.3454  430.3186 178.9875  434.4607 178.9875 L 434.4609 178.9875  610.4609 178.9875  610.4607 178.9875 C 614.603 178.9875  617.9607 182.3454  617.9607 186.4875  617.9607 186.4875  617.9607 186.4875  617.9607 186.4875 L 617.9609 186.4875  617.9609 231.4875 z " stroke="rgba(85,85,85,0.031)" stroke-width="16px" stroke-dashoffset="0" stroke-linejoin="round" stroke-miterlimit="10" /><path fill="none" d="M 617.9607 231.4875 C 617.9607 235.6296  614.603 238.9875  610.4609 238.9875 L 610.4609 238.9875  434.4609 238.9875  434.4609 238.9875 C 430.3186 238.9875  426.9609 235.6296  426.9609 231.4875 L 426.9609 186.4875  426.9607 186.4875 C 426.9607 182.3454  430.3186 178.9875  434.4607 178.9875 L 434.4609 178.9875  610.4609 178.9875  610.4607 178.9875 C 614.603 178.9875  617.9607 182.3454  617.9607 186.4875  617.9607 186.4875  617.9607 186.4875  617.9607 186.4875 L 617.9609 186.4875  617.9609 231.4875 z " stroke="rgba(85,85,85,0.031)" stroke-width="14px" stroke-dashoffset="0" stroke-linejoin="round" stroke-miterlimit="10" /><path fill="none" d="M 617.9607 231.4875 C 617.9607 235.6296  614.603 238.9875  610.4609 238.9875 L 610.4609 238.9875  434.4609 238.9875  434.4609 238.9875 C 430.3186 238.9875  426.9609 235.6296  426.9609 231.4875 L 426.9609 186.4875  426.9607 186.4875 C 426.9607 182.3454  430.3186 178.9875  434.4607 178.9875 L 434.4609 178.9875  610.4609 178.9875  610.4607 178.9875 C 614.603 178.9875  617.9607 182.3454  617.9607 186.4875  617.9607 186.4875  617.9607 186.4875  617.9607 186.4875 L 617.9609 186.4875  617.9609 231.4875 z " stroke="rgba(85,85,85,0.031)" stroke-width="12px" stroke-dashoffset="0" stroke-linejoin="round" stroke-miterlimit="10" /><path fill="none" d="M 617.9607 231.4875 C 617.9607 235.6296  614.603 238.9875  610.4609 238.9875 L 610.4609 238.9875  434.4609 238.9875  434.4609 238.9875 C 430.3186 238.9875  426.9609 235.6296  426.9609 231.4875 L 426.9609 186.4875  426.9607 186.4875 C 426.9607 182.3454  430.3186 178.9875  434.4607 178.9875 L 434.4609 178.9875  610.4609 178.9875  610.4607 178.9875 C 614.603 178.9875  617.9607 182.3454  617.9607 186.4875  617.9607 186.4875  617.9607 186.4875  617.9607 186.4875 L 617.9609 186.4875  617.9609 231.4875 z " stroke="rgba(85,85,85,0.031)" stroke-width="10px" stroke-dashoffset="0" stroke-linejoin="round" stroke-miterlimit="10" /><path fill="none" d="M 617.9607 231.4875 C 617.9607 235.6296  614.603 238.9875  610.4609 238.9875 L 610.4609 238.9875  434.4609 238.9875  434.4609 238.9875 C 430.3186 238.9875  426.9609 235.6296  426.9609 231.4875 L 426.9609 186.4875  426.9607 186.4875 C 426.9607 182.3454  430.3186 178.9875  434.4607 178.9875 L 434.4609 178.9875  610.4609 178.9875  610.4607 178.9875 C 614.603 178.9875  617.9607 182.3454  617.9607 186.4875  617.9607 186.4875  617.9607 186.4875  617.9607 186.4875 L 617.9609 186.4875  617.9609 231.4875 z " stroke="rgba(85,85,85,0.031)" stroke-width="8px" stroke-dashoffset="0" stroke-linejoin="round" stroke-miterlimit="10" /><path fill="none" d="M 617.9607 231.4875 C 617.9607 235.6296  614.603 238.9875  610.4609 238.9875 L 610.4609 238.9875  434.4609 238.9875  434.4609 238.9875 C 430.3186 238.9875  426.9609 235.6296  426.9609 231.4875 L 426.9609 186.4875  426.9607 186.4875 C 426.9607 182.3454  430.3186 178.9875  434.4607 178.9875 L 434.4609 178.9875  610.4609 178.9875  610.4607 178.9875 C 614.603 178.9875  617.9607 182.3454  617.9607 186.4875  617.9607 186.4875  617.9607 186.4875  617.9607 186.4875 L 617.9609 186.4875  617.9609 231.4875 z " stroke="rgba(85,85,85,0.031)" stroke-width="6px" stroke-dashoffset="0" stroke-linejoin="round" stroke-miterlimit="10" /><path fill="none" d="M 617.9607 231.4875 C 617.9607 235.6296  614.603 238.9875  610.4609 238.9875 L 610.4609 238.9875  434.4609 238.9875  434.4609 238.9875 C 430.3186 238.9875  426.9609 235.6296  426.9609 231.4875 L 426.9609 186.4875  426.9607 186.4875 C 426.9607 182.3454  430.3186 178.9875  434.4607 178.9875 L 434.4609 178.9875  610.4609 178.9875  610.4607 178.9875 C 614.603 178.9875  617.9607 182.3454  617.9607 186.4875  617.9607 186.4875  617.9607 186.4875  617.9607 186.4875 L 617.9609 186.4875  617.9609 231.4875 z " stroke="rgba(85,85,85,0.031)" stroke-width="4px" stroke-dashoffset="0" stroke-linejoin="round" stroke-miterlimit="10" /><path fill="none" d="M 617.9607 231.4875 C 617.9607 235.6296  614.603 238.9875  610.4609 238.9875 L 610.4609 238.9875  434.4609 238.9875  434.4609 238.9875 C 430.3186 238.9875  426.9609 235.6296  426.9609 231.4875 L 426.9609 186.4875  426.9607 186.4875 C 426.9607 182.3454  430.3186 178.9875  434.4607 178.9875 L 434.4609 178.9875  610.4609 178.9875  610.4607 178.9875 C 614.603 178.9875  617.9607 182.3454  617.9607 186.4875  617.9607 186.4875  617.9607 186.4875  617.9607 186.4875 L 617.9609 186.4875  617.9609 231.4875 z " stroke="rgba(85,85,85,0.031)" stroke-width="2px" stroke-dashoffset="0" stroke-linejoin="round" stroke-miterlimit="10" /></g><g clip-path="url(#)" transform="matrix(1 0 0 1 0 0)"><path d="M 615.9607 229.4875 C 615.9607 233.6296  612.603 236.9875  608.4609 236.9875 L 608.4609 236.9875  432.4609 236.9875  432.4609 236.9875 C 428.3186 236.9875  424.9609 233.6296  424.9609 229.4875 L 424.9609 184.4875  424.9607 184.4875 C 424.9607 180.3454  428.3186 176.9875  432.4607 176.9875 L 432.4609 176.9875  608.4609 176.9875  608.4607 176.9875 C 612.603 176.9875  615.9607 180.3454  615.9607 184.4875  615.9607 184.4875  615.9607 184.4875  615.9607 184.4875 L 615.9609 184.4875  615.9609 229.4875 z " fill="#F2F2F2" /><path fill="none" d="M 615.9607 229.4875 C 615.9607 233.6296  612.603 236.9875  608.4609 236.9875 L 608.4609 236.9875  432.4609 236.9875  432.4609 236.9875 C 428.3186 236.9875  424.9609 233.6296  424.9609 229.4875 L 424.9609 184.4875  424.9607 184.4875 C 424.9607 180.3454  428.3186 176.9875  432.4607 176.9875 L 432.4609 176.9875  608.4609 176.9875  608.4607 176.9875 C 612.603 176.9875  615.9607 180.3454  615.9607 184.4875  615.9607 184.4875  615.9607 184.4875  615.9607 184.4875 L 615.9609 184.4875  615.9609 229.4875 z " stroke="#555555" stroke-width="2px" stroke-dashoffset="0" stroke-linejoin="round" stroke-miterlimit="10" /></g><g clip-path="url(#cp26)" transform="matrix(1 0 0 1 0 0)"><text x="438px" y="199.62109375px" font-family="Segoe UI" font-size="10.5pt" font-weight="bold" fill="#555555">Chose calibration sensor</text><line x1="425px" y1="208px" x2="616px" y2="208px" stroke="#555555" stroke-width="2px" stroke-dashoffset="0" stroke-linejoin="round" stroke-miterlimit="10" /><text x="430px" y="230.9609375px" font-family="Segoe UI" font-size="9pt" fill="#555555">Query</text><text x="462px" y="230.9609375px" font-family="Segoe UI" font-size="9pt" fill="#555555">Calib</text><text x="488px" y="230.9609375px" font-family="Segoe UI" font-size="9pt" fill="#555555">Mode </text><text x="522px" y="230.9609375px" font-family="Segoe UI" font-size="9pt" fill="#555555">/</text><text x="428px" y="229.9609375px" font-family="Segoe UI" font-size="9pt" fill="#555555"> </text></g><g clip-path="url(#)" transform="matrix(1 0 0 1 0 0)" /><g clip-path="url(#)" transform="matrix(1 0 0 1 0 0)" /><g clip-path="url(#)" transform="matrix(1 0 0 1 0 0)"><path fill="none" d="M 520 367 L 520 457  519.9999 457 C 519.9999 462.5228  515.5228 467  510 467 L 510 467  442 467  442 467 C 436.4771 467  432 471.4771  432 477 L 432 477  432 566 " stroke="#555555" stroke-width="2px" stroke-dashoffset="0" stroke-linejoin="round" stroke-miterlimit="10" /><polyline points="440,543 432,566 424,543 " fill="none" stroke="#555555" stroke-width="2px" stroke-dashoffset="0" stroke-linejoin="round" stroke-miterlimit="10" /><text x="367px" y="500.62109375px" font-family="Segoe UI" font-size="10.5pt" font-weight="bold" fill="#555555">​2</text></g><g clip-path="url(#)" transform="matrix(1 0 0 1 0 0)" /><g clip-path="url(#)" transform="matrix(1 0 0 1 0 0)"><path fill="none" d="M 521 237 L 521 309 " stroke="#555555" stroke-width="2px" stroke-dashoffset="0" stroke-linejoin="round" stroke-miterlimit="10" /><polyline points="529,287 520,309 512,286 " fill="none" stroke="#555555" stroke-width="2px" stroke-dashoffset="0" stroke-linejoin="round" stroke-miterlimit="10" /></g><g clip-path="url(#)" transform="matrix(1 0 0 1 0 0)" /><g clip-path="url(#)" transform="matrix(1 0 0 1 0 0)"><path fill="none" d="M 520 106 L 520 177 " stroke="#555555" stroke-width="2px" stroke-dashoffset="0" stroke-linejoin="round" stroke-miterlimit="10" /><polyline points="528,159 521,177 512,159 " fill="none" stroke="#555555" stroke-width="2px" stroke-dashoffset="0" stroke-linejoin="round" stroke-miterlimit="10" /></g><g clip-path="url(#)" transform="matrix(1 0 0 1 0 0)" /><g clip-path="url(#)" transform="matrix(1 0 0 1 0 0)" /><g clip-path="url(#cp27)" transform="matrix(1 0 0 1 0 0)"><rect x="506px" y="77px" width="32px" height="32px" fill="rgba(85,85,85,0.227)" /></g><g clip-path="url(#)" transform="matrix(1 0 0 1 0 0)" /><g clip-path="url(#cp28)" transform="matrix(1 0 0 1 0 0)"><path fill="none" d="M 537.4609 93.30151 C 537.4609 101.5858  530.7451 108.3015  522.4609 108.3015  514.1765 108.3015  507.4609 101.5858  507.4609 93.30151  507.4609 85.01724  514.1765 78.30151  522.4609 78.30151  530.7451 78.30151  537.4609 85.01724  537.4609 93.30151 z " stroke="rgba(85,85,85,0.031)" stroke-width="16px" stroke-dashoffset="0" stroke-linejoin="round" stroke-miterlimit="10" /><path fill="none" d="M 537.4609 93.30151 C 537.4609 101.5858  530.7451 108.3015  522.4609 108.3015  514.1765 108.3015  507.4609 101.5858  507.4609 93.30151  507.4609 85.01724  514.1765 78.30151  522.4609 78.30151  530.7451 78.30151  537.4609 85.01724  537.4609 93.30151 z " stroke="rgba(85,85,85,0.031)" stroke-width="14px" stroke-dashoffset="0" stroke-linejoin="round" stroke-miterlimit="10" /><path fill="none" d="M 537.4609 93.30151 C 537.4609 101.5858  530.7451 108.3015  522.4609 108.3015  514.1765 108.3015  507.4609 101.5858  507.4609 93.30151  507.4609 85.01724  514.1765 78.30151  522.4609 78.30151  530.7451 78.30151  537.4609 85.01724  537.4609 93.30151 z " stroke="rgba(85,85,85,0.031)" stroke-width="12px" stroke-dashoffset="0" stroke-linejoin="round" stroke-miterlimit="10" /><path fill="none" d="M 537.4609 93.30151 C 537.4609 101.5858  530.7451 108.3015  522.4609 108.3015  514.1765 108.3015  507.4609 101.5858  507.4609 93.30151  507.4609 85.01724  514.1765 78.30151  522.4609 78.30151  530.7451 78.30151  537.4609 85.01724  537.4609 93.30151 z " stroke="rgba(85,85,85,0.031)" stroke-width="10px" stroke-dashoffset="0" stroke-linejoin="round" stroke-miterlimit="10" /><path fill="none" d="M 537.4609 93.30151 C 537.4609 101.5858  530.7451 108.3015  522.4609 108.3015  514.1765 108.3015  507.4609 101.5858  507.4609 93.30151  507.4609 85.01724  514.1765 78.30151  522.4609 78.30151  530.7451 78.30151  537.4609 85.01724  537.4609 93.30151 z " stroke="rgba(85,85,85,0.031)" stroke-width="8px" stroke-dashoffset="0" stroke-linejoin="round" stroke-miterlimit="10" /><path fill="none" d="M 537.4609 93.30151 C 537.4609 101.5858  530.7451 108.3015  522.4609 108.3015  514.1765 108.3015  507.4609 101.5858  507.4609 93.30151  507.4609 85.01724  514.1765 78.30151  522.4609 78.30151  530.7451 78.30151  537.4609 85.01724  537.4609 93.30151 z " stroke="rgba(85,85,85,0.031)" stroke-width="6px" stroke-dashoffset="0" stroke-linejoin="round" stroke-miterlimit="10" /><path fill="none" d="M 537.4609 93.30151 C 537.4609 101.5858  530.7451 108.3015  522.4609 108.3015  514.1765 108.3015  507.4609 101.5858  507.4609 93.30151  507.4609 85.01724  514.1765 78.30151  522.4609 78.30151  530.7451 78.30151  537.4609 85.01724  537.4609 93.30151 z " stroke="rgba(85,85,85,0.031)" stroke-width="4px" stroke-dashoffset="0" stroke-linejoin="round" stroke-miterlimit="10" /><path fill="none" d="M 537.4609 93.30151 C 537.4609 101.5858  530.7451 108.3015  522.4609 108.3015  514.1765 108.3015  507.4609 101.5858  507.4609 93.30151  507.4609 85.01724  514.1765 78.30151  522.4609 78.30151  530.7451 78.30151  537.4609 85.01724  537.4609 93.30151 z " stroke="rgba(85,85,85,0.031)" stroke-width="2px" stroke-dashoffset="0" stroke-linejoin="round" stroke-miterlimit="10" /></g><g clip-path="url(#)" transform="matrix(1 0 0 1 0 0)"><ellipse cx="520px" cy="91px" rx="15px" ry="15px" fill="#555555" /></g><g clip-path="url(#)" transform="matrix(1 0 0 1 0 0)" /><g clip-path="url(#)" transform="matrix(1 0 0 1 0 0)"><path fill="none" d="M 520 367 L 520 457 C 520 462.5228  524.4771 467  530 467 L 530 467  638 467  637.9999 467 C 643.5228 467  647.9999 471.4771  647.9999 477  647.9999 477  647.9999 477  647.9999 477 L 648 477  648 566 " stroke="#555555" stroke-width="2px" stroke-dashoffset="0" stroke-linejoin="round" stroke-miterlimit="10" /><polyline points="656,543 648,566 640,543 " fill="none" stroke="#555555" stroke-width="2px" stroke-dashoffset="0" stroke-linejoin="round" stroke-miterlimit="10" /><text x="579px" y="500.62109375px" font-family="Segoe UI" font-size="10.5pt" font-weight="bold" fill="#555555">​3</text></g><g clip-path="url(#)" transform="matrix(1 0 0 1 0 0)" /><g clip-path="url(#)" transform="matrix(1 0 0 1 0 0)" /><g clip-path="url(#cp29)" transform="matrix(1 0 0 1 0 0)"><rect x="494px" y="309px" width="56px" height="61px" fill="rgba(85,85,85,0.227)" /></g><g clip-path="url(#)" transform="matrix(1 0 0 1 0 0)" /><g clip-path="url(#cp30)" transform="matrix(1 0 0 1 0 0)"><path fill="none" d="M 522.4609 309.6736 L 549.4609 339.1736  522.4609 368.6736  495.4609 339.1736 z " stroke="rgba(85,85,85,0.031)" stroke-width="16px" stroke-dashoffset="0" stroke-linejoin="round" stroke-miterlimit="10" /><path fill="none" d="M 522.4609 309.6736 L 549.4609 339.1736  522.4609 368.6736  495.4609 339.1736 z " stroke="rgba(85,85,85,0.031)" stroke-width="14px" stroke-dashoffset="0" stroke-linejoin="round" stroke-miterlimit="10" /><path fill="none" d="M 522.4609 309.6736 L 549.4609 339.1736  522.4609 368.6736  495.4609 339.1736 z " stroke="rgba(85,85,85,0.031)" stroke-width="12px" stroke-dashoffset="0" stroke-linejoin="round" stroke-miterlimit="10" /><path fill="none" d="M 522.4609 309.6736 L 549.4609 339.1736  522.4609 368.6736  495.4609 339.1736 z " stroke="rgba(85,85,85,0.031)" stroke-width="10px" stroke-dashoffset="0" stroke-linejoin="round" stroke-miterlimit="10" /><path fill="none" d="M 522.4609 309.6736 L 549.4609 339.1736  522.4609 368.6736  495.4609 339.1736 z " stroke="rgba(85,85,85,0.031)" stroke-width="8px" stroke-dashoffset="0" stroke-linejoin="round" stroke-miterlimit="10" /><path fill="none" d="M 522.4609 309.6736 L 549.4609 339.1736  522.4609 368.6736  495.4609 339.1736 z " stroke="rgba(85,85,85,0.031)" stroke-width="6px" stroke-dashoffset="0" stroke-linejoin="round" stroke-miterlimit="10" /><path fill="none" d="M 522.4609 309.6736 L 549.4609 339.1736  522.4609 368.6736  495.4609 339.1736 z " stroke="rgba(85,85,85,0.031)" stroke-width="4px" stroke-dashoffset="0" stroke-linejoin="round" stroke-miterlimit="10" /><path fill="none" d="M 522.4609 309.6736 L 549.4609 339.1736  522.4609 368.6736  495.4609 339.1736 z " stroke="rgba(85,85,85,0.031)" stroke-width="2px" stroke-dashoffset="0" stroke-linejoin="round" stroke-miterlimit="10" /></g><g clip-path="url(#)" transform="matrix(1 0 0 1 0 0)"><path d="M 520.4609 307.6736 L 547.4609 337.1736  520.4609 366.6736  493.4609 337.1736 z " fill="#F2F2F2" /><path fill="none" d="M 520.4609 307.6736 L 547.4609 337.1736  520.4609 366.6736  493.4609 337.1736 z " stroke="#555555" stroke-width="2px" stroke-dashoffset="0" stroke-linejoin="round" stroke-miterlimit="10" /><text x="556px" y="295.62109375px" font-family="Segoe UI" font-size="10.5pt" font-weight="bold" fill="#555555">Calibration chosen</text></g><g clip-path="url(#)" transform="matrix(1 0 0 1 0 0)" /><g clip-path="url(#)" transform="matrix(1 0 0 1 0 0)"><path fill="none" d="M 520 367 L 520 457  519.9999 457 C 519.9999 462.5228  515.5228 467  510 467 L 510 467  226 467  226 467 C 220.4771 467  216 471.4771  216 477 L 216 477  216 566 " stroke="#555555" stroke-width="2px" stroke-dashoffset="0" stroke-linejoin="round" stroke-miterlimit="10" /><polyline points="224,543 216,566 208,543 " fill="none" stroke="#555555" stroke-width="2px" stroke-dashoffset="0" stroke-linejoin="round" stroke-miterlimit="10" /><text x="162px" y="498.62109375px" font-family="Segoe UI" font-size="10.5pt" font-weight="bold" fill="#555555">​1</text></g><g clip-path="url(#)" transform="matrix(1 0 0 1 0 0)" /><g clip-path="url(#)" transform="matrix(1 0 0 1 0 0)"><path fill="none" d="M 520 366 L 520 456 C 520 461.5228  524.4771 466  530 466 L 530 466  829 466  828.9999 466 C 834.5228 466  838.9999 470.4771  838.9999 476  838.9999 476  838.9999 476  838.9999 476 L 839 476  839 588 " stroke="#555555" stroke-width="2px" stroke-dashoffset="0" stroke-linejoin="round" stroke-miterlimit="10" /><polyline points="847,565 839,588 831,565 " fill="none" stroke="#555555" stroke-width="2px" stroke-dashoffset="0" stroke-linejoin="round" stroke-miterlimit="10" /><text x="805px" y="503.62109375px" font-family="Segoe UI" font-size="10.5pt" font-weight="bold" fill="#555555">​4</text></g><g clip-path="url(#)" transform="matrix(1 0 0 1 0 0)" /></svg>